<svg width="17" height="17" viewBox="0 0 17 17" fill="none" xmlns="http://www.w3.org/2000/svg">
<path d="M9 6.75C10.4497 6.75 11.625 5.57475 11.625 4.125C11.625 2.67525 10.4497 1.5 9 1.5C7.55025 1.5 6.375 2.67525 6.375 4.125C6.375 5.57475 7.55025 6.75 9 6.75Z" stroke="white" stroke-width="1.5" stroke-linecap="round" stroke-linejoin="round"/>
<path d="M1.5 15.375C1.5 12.0611 4.52213 9.375 8.25 9.375" stroke="white" stroke-width="1.5" stroke-linecap="round" stroke-linejoin="round"/>
<path d="M12.75 16.125C14.614 16.125 16.125 14.614 16.125 12.75C16.125 10.886 14.614 9.375 12.75 9.375C10.886 9.375 9.375 10.886 9.375 12.75C9.375 14.614 10.886 16.125 12.75 16.125Z" stroke="white" stroke-width="1.5"/>
<path d="M12.375 11.625V13.125H13.875" stroke="white" stroke-linecap="round" stroke-linejoin="round"/>
</svg>
