<svg width="18" height="18" viewBox="0 0 18 18" fill="none" xmlns="http://www.w3.org/2000/svg">
<path fill-rule="evenodd" clip-rule="evenodd" d="M8.208 0.9375H9.792C11.1705 0.9375 12.2625 0.9375 13.1168 1.05225C13.9958 1.17075 14.7075 1.41975 15.2692 1.98075C15.8302 2.5425 16.0793 3.25425 16.1978 4.13325C16.3125 4.98825 16.3125 6.0795 16.3125 7.458V10.542C16.3125 11.9205 16.3125 13.0125 16.1978 13.8668C16.0793 14.7458 15.8302 15.4575 15.2692 16.0192C14.7075 16.5802 13.9958 16.8293 13.1168 16.9478C12.2618 17.0625 11.1705 17.0625 9.792 17.0625H8.208C6.8295 17.0625 5.7375 17.0625 4.88325 16.9478C4.00425 16.8293 3.2925 16.5802 2.73075 16.0192C2.16975 15.4575 1.92075 14.7458 1.80225 13.8668C1.6875 13.0118 1.6875 11.9205 1.6875 10.542V7.458C1.6875 6.0795 1.6875 4.9875 1.80225 4.13325C1.92075 3.25425 2.16975 2.5425 2.73075 1.98075C3.2925 1.41975 4.00425 1.17075 4.88325 1.05225C5.73825 0.9375 6.8295 0.9375 8.208 0.9375ZM5.0325 2.1675C4.278 2.26875 3.843 2.45925 3.525 2.7765C3.2085 3.09375 3.018 3.52875 2.91675 4.28325C2.81325 5.05425 2.81175 6.06975 2.81175 7.5V10.5C2.81175 11.9303 2.81325 12.9465 2.91675 13.7175C3.018 14.4713 3.2085 14.9062 3.52575 15.2235C3.843 15.5408 4.278 15.7313 5.0325 15.8325C5.8035 15.936 6.819 15.9375 8.24925 15.9375H9.74925C11.1795 15.9375 12.1957 15.936 12.9667 15.8325C13.7205 15.7313 14.1555 15.5408 14.4728 15.2235C14.79 14.9062 14.9805 14.4712 15.0817 13.7167C15.1852 12.9465 15.1868 11.9303 15.1868 10.5V7.5C15.1868 6.06975 15.1852 5.05425 15.0817 4.2825C14.9805 3.52875 14.79 3.09375 14.4728 2.7765C14.1555 2.45925 13.7205 2.26875 12.966 2.1675C12.1958 2.064 11.1795 2.0625 9.74925 2.0625H8.24925C6.819 2.0625 5.80425 2.064 5.0325 2.1675ZM5.4375 7.5C5.4375 7.35082 5.49676 7.20774 5.60225 7.10225C5.70774 6.99676 5.85082 6.9375 6 6.9375H12C12.1492 6.9375 12.2923 6.99676 12.3977 7.10225C12.5032 7.20774 12.5625 7.35082 12.5625 7.5C12.5625 7.64918 12.5032 7.79226 12.3977 7.89775C12.2923 8.00324 12.1492 8.0625 12 8.0625H6C5.85082 8.0625 5.70774 8.00324 5.60225 7.89775C5.49676 7.79226 5.4375 7.64918 5.4375 7.5ZM5.4375 10.5C5.4375 10.3508 5.49676 10.2077 5.60225 10.1023C5.70774 9.99676 5.85082 9.9375 6 9.9375H9.75C9.89918 9.9375 10.0423 9.99676 10.1477 10.1023C10.2532 10.2077 10.3125 10.3508 10.3125 10.5C10.3125 10.6492 10.2532 10.7923 10.1477 10.8977C10.0423 11.0032 9.89918 11.0625 9.75 11.0625H6C5.85082 11.0625 5.70774 11.0032 5.60225 10.8977C5.49676 10.7923 5.4375 10.6492 5.4375 10.5Z" fill="white"/>
</svg>
