<svg width="26" height="27" viewBox="0 0 26 27" fill="none" xmlns="http://www.w3.org/2000/svg">
<circle cx="13.001" cy="13.3279" r="12.7705" fill="white"/>
<path d="M16.3845 9.86078L16.4006 9.87691C16.611 10.0873 16.7925 10.2688 16.9182 10.4334C17.0533 10.6102 17.1555 10.8071 17.1555 11.0491C17.1555 11.2911 17.0526 11.488 16.9182 11.6648C16.7925 11.8295 16.611 12.0109 16.4006 12.2213L16.3845 12.2374L11.5492 17.0728L11.527 17.0949C11.4181 17.2038 11.322 17.2999 11.2017 17.3685C11.0814 17.437 10.949 17.47 10.7991 17.5076L10.7689 17.5143L8.99914 17.9566L8.98503 17.9606C8.87662 17.9914 8.76609 18.0141 8.65434 18.0285C8.55016 18.0393 8.37473 18.0373 8.23426 17.8961C8.09378 17.755 8.09109 17.5795 8.10117 17.4754C8.11628 17.3702 8.1376 17.2661 8.16503 17.1635L8.16973 17.1453L8.61603 15.3615L8.62342 15.3319C8.66106 15.1814 8.69332 15.0496 8.76188 14.9287C8.82976 14.8083 8.92655 14.7122 9.03544 14.6027L9.05762 14.5812L13.8929 9.74585L13.9091 9.72972C14.1194 9.51934 14.3009 9.33787 14.4656 9.21218C14.6424 9.07708 14.8393 8.97491 15.0813 8.97491C15.3232 8.97491 15.5202 9.07775 15.6969 9.21218C15.8616 9.33787 16.0431 9.51934 16.2535 9.72972L16.2696 9.74585L16.3845 9.86078ZM16.3845 9.86078L16.1473 10.0987" stroke="#F0A837" stroke-width="0.672131"/>
<path d="M13.4004 10.0409L15.4168 8.69666L17.4332 10.713L16.0889 12.7294L13.4004 10.0409Z" fill="#F0A837"/>
</svg>
