<svg width="20" height="15" viewBox="0 0 20 15" fill="none" xmlns="http://www.w3.org/2000/svg">
<path d="M16.2513 3.25V3.6075C16.2513 6.38667 17.3246 7.12 19.5846 8.25V12.4167H17.5013M16.2513 3.25H17.918V2.83333C17.918 2.83333 16.668 2 16.2513 0.75H0.417969V12.4167H2.08464M16.2513 3.25H12.0846V6.58333H17.1005M17.5013 12.4167C17.5013 12.9692 17.2818 13.4991 16.8911 13.8898C16.5004 14.2805 15.9705 14.5 15.418 14.5C14.8654 14.5 14.3355 14.2805 13.9448 13.8898C13.5541 13.4991 13.3346 12.9692 13.3346 12.4167M17.5013 12.4167C17.5013 11.8641 17.2818 11.3342 16.8911 10.9435C16.5004 10.5528 15.9705 10.3333 15.418 10.3333C14.8654 10.3333 14.3355 10.5528 13.9448 10.9435C13.5541 11.3342 13.3346 11.8641 13.3346 12.4167M2.08464 12.4167C2.08464 12.9692 2.30413 13.4991 2.69483 13.8898C3.08553 14.2805 3.61543 14.5 4.16797 14.5C4.7205 14.5 5.25041 14.2805 5.64111 13.8898C6.03181 13.4991 6.2513 12.9692 6.2513 12.4167M2.08464 12.4167C2.08464 11.8641 2.30413 11.3342 2.69483 10.9435C3.08553 10.5528 3.61543 10.3333 4.16797 10.3333C4.7205 10.3333 5.25041 10.5528 5.64111 10.9435C6.03181 11.3342 6.2513 11.8641 6.2513 12.4167M13.3346 12.4167H6.2513M9.58463 6.58333V3.25H2.91797V6.58333H9.58463Z" stroke="white"/>
</svg>
