<svg width="18" height="18" viewBox="0 0 18 18" fill="none" xmlns="http://www.w3.org/2000/svg">
<path d="M7.5 9C6.675 9 5.96875 8.70625 5.38125 8.11875C4.79375 7.53125 4.5 6.825 4.5 6C4.5 5.175 4.79375 4.46875 5.38125 3.88125C5.96875 3.29375 6.675 3 7.5 3C8.325 3 9.03125 3.29375 9.61875 3.88125C10.2063 4.46875 10.5 5.175 10.5 6C10.5 6.825 10.2063 7.53125 9.61875 8.11875C9.03125 8.70625 8.325 9 7.5 9ZM1.5 13.5V12.9C1.5 12.4875 1.60625 12.1 1.81875 11.7375C2.03125 11.375 2.325 11.1 2.7 10.9125C3.425 10.55 4.175 10.2655 4.95 10.059C5.725 9.8525 6.51875 9.7495 7.33125 9.75C7.54375 9.75 7.722 9.825 7.866 9.975C8.01 10.125 8.08175 10.3062 8.08125 10.5187C8.08075 10.7312 8.00875 10.9095 7.86525 11.0535C7.72175 11.1975 7.54375 11.2692 7.33125 11.2687C6.63125 11.2687 5.953 11.3562 5.2965 11.5312C4.64 11.7063 3.9995 11.95 3.375 12.2625C3.25 12.325 3.15625 12.4125 3.09375 12.525C3.03125 12.6375 3 12.7625 3 12.9V13.5H7.33125C7.54375 13.5 7.722 13.572 7.866 13.716C8.01 13.86 8.08175 14.038 8.08125 14.25C8.08075 14.462 8.00875 14.6402 7.86525 14.7847C7.72175 14.9292 7.54375 15.001 7.33125 15H3C2.5875 15 2.2345 14.8533 1.941 14.5597C1.6475 14.2662 1.5005 13.913 1.5 13.5ZM11.8875 15.15L11.775 14.625C11.625 14.5625 11.4845 14.497 11.3535 14.4285C11.2225 14.36 11.088 14.2755 10.95 14.175L10.4062 14.3438C10.2437 14.3938 10.0845 14.3875 9.9285 14.325C9.7725 14.2625 9.6505 14.1625 9.5625 14.025L9.4125 13.7625C9.325 13.6125 9.29375 13.45 9.31875 13.275C9.34375 13.1 9.425 12.9563 9.5625 12.8438L9.975 12.4875C9.95 12.3125 9.9375 12.15 9.9375 12C9.9375 11.85 9.95 11.6875 9.975 11.5125L9.5625 11.1562C9.425 11.0437 9.34375 10.903 9.31875 10.734C9.29375 10.565 9.325 10.4058 9.4125 10.2563L9.58125 9.975C9.66875 9.8375 9.7875 9.7375 9.9375 9.675C10.0875 9.6125 10.2437 9.60625 10.4062 9.65625L10.95 9.825C11.0875 9.725 11.222 9.6405 11.3535 9.5715C11.485 9.5025 11.6255 9.437 11.775 9.375L11.8875 8.83125C11.925 8.65625 12.0095 8.51575 12.141 8.40975C12.2725 8.30375 12.4255 8.2505 12.6 8.25H12.9C13.075 8.25 13.2282 8.30625 13.3597 8.41875C13.4913 8.53125 13.5755 8.675 13.6125 8.85L13.725 9.375C13.875 9.4375 14.0155 9.50625 14.1465 9.58125C14.2775 9.65625 14.412 9.75 14.55 9.8625L15.0563 9.69375C15.2313 9.63125 15.4 9.63125 15.5625 9.69375C15.725 9.75625 15.85 9.8625 15.9375 10.0125L16.0875 10.275C16.175 10.425 16.2063 10.5875 16.1813 10.7625C16.1563 10.9375 16.075 11.0813 15.9375 11.1938L15.525 11.55C15.55 11.7 15.5625 11.8562 15.5625 12.0187C15.5625 12.1812 15.55 12.3375 15.525 12.4875L15.9375 12.8438C16.075 12.9563 16.1563 13.097 16.1813 13.266C16.2063 13.435 16.175 13.5943 16.0875 13.7438L15.9188 14.025C15.8313 14.1625 15.7125 14.2625 15.5625 14.325C15.4125 14.3875 15.2563 14.3938 15.0938 14.3438L14.55 14.175C14.4125 14.275 14.278 14.3593 14.1465 14.4277C14.015 14.4962 13.8745 14.562 13.725 14.625L13.6125 15.1688C13.575 15.3438 13.4907 15.4845 13.3597 15.591C13.2288 15.6975 13.0755 15.7505 12.9 15.75H12.6C12.425 15.75 12.272 15.6937 12.141 15.5812C12.01 15.4688 11.9255 15.325 11.8875 15.15ZM12.75 13.5C13.1625 13.5 13.5157 13.3533 13.8097 13.0597C14.1038 12.7662 14.2505 12.413 14.25 12C14.2495 11.587 14.1027 11.234 13.8097 10.941C13.5168 10.648 13.1635 10.501 12.75 10.5C12.3365 10.499 11.9835 10.646 11.691 10.941C11.3985 11.236 11.2515 11.589 11.25 12C11.2485 12.411 11.3955 12.7642 11.691 13.0597C11.9865 13.3553 12.3395 13.502 12.75 13.5ZM7.5 7.5C7.9125 7.5 8.26575 7.35325 8.55975 7.05975C8.85375 6.76625 9.0005 6.413 9 6C8.9995 5.587 8.85275 5.234 8.55975 4.941C8.26675 4.648 7.9135 4.501 7.5 4.5C7.0865 4.499 6.7335 4.646 6.441 4.941C6.1485 5.236 6.0015 5.589 6 6C5.9985 6.411 6.1455 6.76425 6.441 7.05975C6.7365 7.35525 7.0895 7.502 7.5 7.5Z" fill="#6F757E"/>
</svg>
