<svg width="18" height="18" viewBox="0 0 18 18" fill="none" xmlns="http://www.w3.org/2000/svg">
<g clip-path="url(#clip0_2387_4152)">
<path d="M12.9319 12.2794V10.5118C12.9319 10.3714 12.8761 10.2368 12.7768 10.1375C12.6775 10.0382 12.5429 9.98242 12.4025 9.98242C12.262 9.98242 12.1274 10.0382 12.0281 10.1375C11.9288 10.2368 11.873 10.3714 11.873 10.5118V12.4815C11.873 12.6116 11.9209 12.7372 12.0076 12.8342L13.0548 14.0065C13.1044 14.0622 13.1653 14.1067 13.2333 14.1371C13.3014 14.1676 13.3752 14.1833 13.4497 14.1832C13.5519 14.1832 13.6519 14.1536 13.7376 14.098C13.8233 14.0424 13.8911 13.9632 13.9328 13.87C13.9745 13.7767 13.9884 13.6734 13.9727 13.5725C13.957 13.4715 13.9124 13.3773 13.8444 13.3011L12.9318 12.2795L12.9319 12.2794Z" fill="#6F757E"/>
<path d="M16.4232 9.41222V4.92736C16.4232 3.48026 15.2465 2.30285 13.8002 2.30285H13.0199V1.20422C13.0199 1.06381 12.9641 0.92915 12.8649 0.829866C12.7656 0.730582 12.6309 0.674805 12.4905 0.674805C12.3501 0.674805 12.2154 0.730582 12.1162 0.829866C12.0169 0.92915 11.9611 1.06381 11.9611 1.20422V2.30285H4.9916V1.20422C4.9916 1.13469 4.97791 1.06585 4.9513 1.00162C4.9247 0.937388 4.8857 0.879026 4.83654 0.829866C4.78738 0.780705 4.72902 0.741709 4.66479 0.715104C4.60056 0.688498 4.53171 0.674805 4.46219 0.674805C4.39267 0.674805 4.32383 0.688498 4.25959 0.715104C4.19536 0.741709 4.137 0.780705 4.08784 0.829866C4.03868 0.879026 3.99968 0.937388 3.97308 1.00162C3.94647 1.06585 3.93278 1.13469 3.93278 1.20422V2.30285H3.15232C1.70597 2.30285 0.529297 3.48026 0.529297 4.92736V13.6537C0.529297 15.1007 1.70597 16.2782 3.15232 16.2782H9.55863C10.3909 16.933 11.4391 17.3252 12.5779 17.3252C15.2756 17.3252 17.4705 15.1302 17.4705 12.4321C17.4705 11.2931 17.0783 10.2447 16.4233 9.41232L16.4232 9.41222ZM1.58801 13.6535V4.92736C1.58801 4.06399 2.2897 3.36168 3.15221 3.36168H3.93267V4.80845C3.93267 4.94886 3.98845 5.08352 4.08773 5.1828C4.18702 5.28209 4.32168 5.33786 4.46209 5.33786C4.60249 5.33786 4.73715 5.28209 4.83644 5.1828C4.93572 5.08352 4.9915 4.94886 4.9915 4.80845V3.36168H11.961V4.80845C11.961 4.94886 12.0168 5.08352 12.1161 5.1828C12.2153 5.28209 12.35 5.33786 12.4904 5.33786C12.6308 5.33786 12.7655 5.28209 12.8648 5.1828C12.964 5.08352 13.0198 4.94886 13.0198 4.80845V3.36168H13.8001C14.6626 3.36168 15.3643 4.06399 15.3643 4.92736V8.41343C14.5729 7.86284 13.6127 7.53884 12.5777 7.53884C9.87987 7.53884 7.68493 9.73389 7.68493 12.432C7.68493 13.4672 8.00893 14.4278 8.55963 15.2193H3.15221C2.2897 15.2193 1.58801 14.5169 1.58801 13.6535ZM12.5778 16.2663C10.4637 16.2663 8.74386 14.5462 8.74386 12.432C8.74386 10.3177 10.4637 8.59766 12.5778 8.59766C14.6918 8.59766 16.4115 10.3177 16.4115 12.432C16.4115 14.5462 14.6917 16.2663 12.5778 16.2663Z" fill="#6F757E"/>
</g>
<defs>
<clipPath id="clip0_2387_4152">
<rect width="18" height="18" fill="white"/>
</clipPath>
</defs>
</svg>
