<svg width="16" height="16" viewBox="0 0 16 16" fill="none" xmlns="http://www.w3.org/2000/svg">
<path d="M10.0913 6.07157C10.4749 6.07157 10.8428 6.22396 11.1141 6.49522C11.3853 6.76648 11.5377 7.13438 11.5377 7.518V11.5352C11.5377 12.4731 11.1651 13.3726 10.502 14.0358C9.83876 14.699 8.93927 15.0716 8.00137 15.0716C7.06347 15.0716 6.16398 14.699 5.50079 14.0358C4.83759 13.3726 4.46501 12.4731 4.46501 11.5352V7.518C4.46501 7.13438 4.61741 6.76648 4.88866 6.49522C5.15992 6.22396 5.52783 6.07157 5.91144 6.07157H10.0913ZM10.0913 7.03585H5.91144C5.78357 7.03585 5.66094 7.08665 5.57052 7.17707C5.4801 7.26749 5.4293 7.39012 5.4293 7.518V11.5352C5.4293 12.2174 5.70028 12.8716 6.18264 13.3539C6.665 13.8363 7.31922 14.1073 8.00137 14.1073C8.68353 14.1073 9.33774 13.8363 9.8201 13.3539C10.3025 12.8716 10.5734 12.2174 10.5734 11.5352V7.518C10.5734 7.39012 10.5226 7.26749 10.4322 7.17707C10.3418 7.08665 10.2192 7.03585 10.0913 7.03585ZM1.73159 6.07157H4.4033C4.14513 6.34023 3.96376 6.67323 3.87809 7.03585H1.73159C1.60371 7.03585 1.48108 7.08665 1.39066 7.17707C1.30024 7.26749 1.24944 7.39012 1.24944 7.518V10.8924C1.24919 11.215 1.32987 11.5325 1.48411 11.8159C1.63834 12.0992 1.86119 12.3394 2.13227 12.5143C2.40334 12.6892 2.71396 12.7934 3.0357 12.8172C3.35744 12.841 3.68001 12.7837 3.97387 12.6506C4.05937 12.9656 4.18216 13.2651 4.33644 13.5454C3.89601 13.7379 3.41456 13.8176 2.9356 13.7773C2.45664 13.737 1.99526 13.5781 1.59316 13.3147C1.19106 13.0514 0.860907 12.692 0.632537 12.2691C0.404167 11.8462 0.284777 11.373 0.285157 10.8924V7.518C0.285157 7.13438 0.437548 6.76648 0.708806 6.49522C0.980064 6.22396 1.34797 6.07157 1.73159 6.07157ZM14.2673 6.07157C14.6509 6.07157 15.0188 6.22396 15.2901 6.49522C15.5613 6.76648 15.7137 7.13438 15.7137 7.518V10.893C15.7139 11.3733 15.5945 11.8461 15.3663 12.2688C15.1381 12.6914 14.8082 13.0505 14.4064 13.3138C14.0047 13.5771 13.5437 13.7361 13.0651 13.7767C12.5865 13.8172 12.1053 13.738 11.665 13.5461L11.701 13.4805C11.8386 13.2195 11.9498 12.9424 12.0295 12.6519C12.3232 12.784 12.6454 12.8405 12.9665 12.8162C13.2877 12.7919 13.5977 12.6875 13.8681 12.5126C14.1386 12.3377 14.3609 12.0978 14.5149 11.8149C14.6688 11.532 14.7495 11.2151 14.7494 10.893V7.518C14.7494 7.39024 14.6987 7.2677 14.6085 7.1773C14.5182 7.0869 14.3957 7.03602 14.2679 7.03585H12.1253C12.0394 6.67317 11.8578 6.34016 11.5994 6.07157H14.2673ZM7.99944 0.928711C8.29492 0.928711 8.5875 0.986909 8.86048 1.09998C9.13346 1.21306 9.3815 1.37879 9.59043 1.58772C9.79937 1.79665 9.9651 2.04469 10.0782 2.31767C10.1912 2.59066 10.2494 2.88324 10.2494 3.17871C10.2494 3.47419 10.1912 3.76677 10.0782 4.03975C9.9651 4.31273 9.79937 4.56077 9.59043 4.7697C9.3815 4.97863 9.13346 5.14437 8.86048 5.25744C8.5875 5.37051 8.29492 5.42871 7.99944 5.42871C7.40271 5.42871 6.83041 5.19166 6.40845 4.7697C5.9865 4.34774 5.74944 3.77545 5.74944 3.17871C5.74944 2.58197 5.9865 2.00968 6.40845 1.58772C6.83041 1.16576 7.40271 0.928711 7.99944 0.928711ZM13.1442 1.57157C13.3975 1.57157 13.6483 1.62145 13.8823 1.71837C14.1162 1.81529 14.3289 1.95735 14.5079 2.13643C14.687 2.31552 14.8291 2.52812 14.926 2.76211C15.0229 2.99609 15.0728 3.24688 15.0728 3.50014C15.0728 3.7534 15.0229 4.00419 14.926 4.23817C14.8291 4.47216 14.687 4.68476 14.5079 4.86385C14.3289 5.04293 14.1162 5.18499 13.8823 5.28191C13.6483 5.37883 13.3975 5.42871 13.1442 5.42871C12.6327 5.42871 12.1422 5.22552 11.7805 4.86385C11.4188 4.50217 11.2157 4.01163 11.2157 3.50014C11.2157 2.98865 11.4188 2.49811 11.7805 2.13643C12.1422 1.77476 12.6327 1.57157 13.1442 1.57157ZM2.85466 1.57157C3.10792 1.57157 3.3587 1.62145 3.59269 1.71837C3.82667 1.81529 4.03928 1.95735 4.21836 2.13643C4.39745 2.31552 4.53951 2.52812 4.63643 2.76211C4.73334 2.99609 4.78323 3.24688 4.78323 3.50014C4.78323 3.7534 4.73334 4.00419 4.63643 4.23817C4.53951 4.47216 4.39745 4.68476 4.21836 4.86385C4.03928 5.04293 3.82667 5.18499 3.59269 5.28191C3.3587 5.37883 3.10792 5.42871 2.85466 5.42871C2.34317 5.42871 1.85263 5.22552 1.49095 4.86385C1.12927 4.50217 0.926086 4.01163 0.926086 3.50014C0.926086 2.98865 1.12927 2.49811 1.49095 2.13643C1.85263 1.77476 2.34317 1.57157 2.85466 1.57157ZM7.99944 1.893C7.65845 1.893 7.33142 2.02846 7.09031 2.26957C6.84919 2.51069 6.71373 2.83772 6.71373 3.17871C6.71373 3.5197 6.84919 3.84673 7.09031 4.08785C7.33142 4.32897 7.65845 4.46443 7.99944 4.46443C8.34044 4.46443 8.66746 4.32897 8.90858 4.08785C9.1497 3.84673 9.28516 3.5197 9.28516 3.17871C9.28516 2.83772 9.1497 2.51069 8.90858 2.26957C8.66746 2.02846 8.34044 1.893 7.99944 1.893ZM13.1442 2.53585C13.0176 2.53585 12.8922 2.5608 12.7752 2.60926C12.6582 2.65772 12.5519 2.72874 12.4624 2.81829C12.3728 2.90783 12.3018 3.01413 12.2533 3.13112C12.2049 3.24812 12.1799 3.37351 12.1799 3.50014C12.1799 3.62677 12.2049 3.75216 12.2533 3.86916C12.3018 3.98615 12.3728 4.09245 12.4624 4.18199C12.5519 4.27153 12.6582 4.34256 12.7752 4.39102C12.8922 4.43948 13.0176 4.46443 13.1442 4.46443C13.4 4.46443 13.6452 4.36283 13.8261 4.18199C14.0069 4.00115 14.1085 3.75588 14.1085 3.50014C14.1085 3.2444 14.0069 2.99913 13.8261 2.81829C13.6452 2.63745 13.4 2.53585 13.1442 2.53585ZM2.85466 2.53585C2.72803 2.53585 2.60263 2.5608 2.48564 2.60926C2.36865 2.65772 2.26235 2.72874 2.1728 2.81829C2.08326 2.90783 2.01223 3.01413 1.96377 3.13112C1.91531 3.24812 1.89037 3.37351 1.89037 3.50014C1.89037 3.62677 1.91531 3.75216 1.96377 3.86916C2.01223 3.98615 2.08326 4.09245 2.1728 4.18199C2.26235 4.27153 2.36865 4.34256 2.48564 4.39102C2.60263 4.43948 2.72803 4.46443 2.85466 4.46443C3.1104 4.46443 3.35567 4.36283 3.53651 4.18199C3.71735 4.00115 3.81894 3.75588 3.81894 3.50014C3.81894 3.2444 3.71735 2.99913 3.53651 2.81829C3.35567 2.63745 3.1104 2.53585 2.85466 2.53585Z" fill="#6F757E"/>
</svg>
