<svg width="58" height="58" viewBox="0 0 58 58" fill="none" xmlns="http://www.w3.org/2000/svg">
<path d="M0.916504 5.02702C0.916504 2.63067 2.85913 0.688049 5.25548 0.688049H52.9842C55.3806 0.688049 57.3232 2.63068 57.3232 5.02703V52.7558C57.3232 55.1521 55.3806 57.0947 52.9842 57.0947H5.25548C2.85913 57.0947 0.916504 55.1521 0.916504 52.7558V5.02702Z" fill="#F0A837"/>
<path d="M28.1036 40.9646C27.2888 39.7786 26.3644 38.4395 25.3303 36.9474C24.2961 35.4577 23.5597 34.4079 23.121 33.798C22.6799 33.1858 22.1712 32.4313 21.5951 31.5345C21.019 30.6354 20.6369 29.999 20.4489 29.6254C20.2633 29.2542 20.0608 28.7805 19.8415 28.2044C19.6197 27.6283 19.4835 27.1281 19.4329 26.7038C19.3822 26.2796 19.3569 25.7794 19.3569 25.2032C19.3569 22.4914 20.3067 20.1869 22.2062 18.2898C24.1033 16.3903 26.4078 15.4406 29.1196 15.4406C31.8315 15.4406 34.1372 16.3903 36.0367 18.2898C37.9338 20.1869 38.8823 22.4914 38.8823 25.2032C38.8823 25.7794 38.857 26.2796 38.8064 26.7038C38.7558 27.1281 38.6196 27.6283 38.3978 28.2044C38.1784 28.7805 37.976 29.2542 37.7903 29.6254C37.6023 29.999 37.2203 30.6354 36.6441 31.5345C36.068 32.4313 35.5594 33.1858 35.1183 33.798C34.6795 34.4079 33.9431 35.4577 32.909 36.9474C31.8749 38.4395 30.9504 39.7786 30.1357 40.9646C29.8994 41.3045 29.5608 41.4744 29.1196 41.4744C28.6785 41.4744 28.3398 41.3045 28.1036 40.9646ZM26.2451 28.0778C27.0429 28.8733 28.0011 29.271 29.1196 29.271C30.2381 29.271 31.1963 28.8733 31.9942 28.0778C32.7897 27.2799 33.1874 26.3217 33.1874 25.2032C33.1874 24.0848 32.7897 23.1266 31.9942 22.3287C31.1963 21.5332 30.2381 21.1355 29.1196 21.1355C28.0011 21.1355 27.0429 21.5332 26.2451 22.3287C25.4496 23.1266 25.0518 24.0848 25.0518 25.2032C25.0518 26.3217 25.4496 27.2799 26.2451 28.0778Z" fill="white"/>
</svg>
