<svg width="58" height="58" viewBox="0 0 58 58" fill="none" xmlns="http://www.w3.org/2000/svg">
<path d="M0.813965 5.02702C0.813965 2.63067 2.75659 0.688049 5.15294 0.688049H52.8817C55.278 0.688049 57.2206 2.63068 57.2206 5.02703V52.7558C57.2206 55.1521 55.278 57.0947 52.8817 57.0947H5.15294C2.75659 57.0947 0.813965 55.1521 0.813965 52.7558V5.02702Z" fill="#F0A837"/>
<path d="M35.5765 31.408L41.2714 33.8487C41.78 34.0511 42.0343 34.4236 42.0343 34.9659C42.0343 35.0672 42.0175 35.1516 41.9837 35.2191L40.7616 40.509C40.6266 41.1526 40.2373 41.4744 39.5937 41.4744C33.0852 41.4744 27.5265 39.1699 22.9175 34.561C18.3062 29.9496 16.0005 24.3897 16.0005 17.8812C16.0005 17.2376 16.3223 16.8483 16.9659 16.7133L22.2558 15.4912C22.3233 15.4574 22.4077 15.4406 22.509 15.4406C23.0513 15.4406 23.4238 15.6949 23.6262 16.2035L26.0669 21.8984C26.1368 22.0334 26.1718 22.1865 26.1718 22.3576C26.1718 22.7288 26.0187 23.0506 25.7126 23.323L22.6608 25.8143C24.5603 29.9147 27.5602 32.9146 31.6606 34.8141L34.1519 31.7623C34.4243 31.4586 34.7473 31.3067 35.1209 31.3067C35.2896 31.3067 35.4415 31.3405 35.5765 31.408Z" fill="white"/>
</svg>
