<svg width="58" height="58" viewBox="0 0 58 58" fill="none" xmlns="http://www.w3.org/2000/svg">
<path d="M0.712402 5.02705C0.712402 2.6307 2.65503 0.68808 5.05138 0.68808H52.7801C55.1765 0.68808 57.1191 2.63071 57.1191 5.02706V52.7558C57.1191 55.1521 55.1765 57.0948 52.7801 57.0948H5.05137C2.65502 57.0948 0.712402 55.1521 0.712402 52.7558V5.02705Z" fill="#F0A837"/>
<path d="M19.9926 19.5337C22.4514 17.0774 25.426 15.8492 28.9164 15.8492C32.4069 15.8492 35.3815 17.0774 37.8403 19.5337C40.299 21.9924 41.5284 24.9671 41.5284 28.4575C41.5284 31.948 40.299 34.9226 37.8403 37.3814C35.3815 39.8401 32.4069 41.0695 28.9164 41.0695C25.426 41.0695 22.4514 39.8401 19.9926 37.3814C17.5363 34.9226 16.3081 31.948 16.3081 28.4575C16.3081 24.9671 17.5363 21.9924 19.9926 19.5337ZM32.5793 33.0351L33.5953 31.7624C33.7303 31.6274 33.7978 31.4574 33.7978 31.2525C33.7978 30.9826 33.6966 30.7632 33.4941 30.5945L30.5436 28.4575V21.1355C30.5436 20.8993 30.4676 20.704 30.3158 20.5497C30.1615 20.3979 29.9662 20.3219 29.73 20.3219H28.1029C27.8667 20.3219 27.6714 20.3979 27.5171 20.5497C27.3653 20.704 27.2893 20.8993 27.2893 21.1355V29.0686C27.2893 29.7122 27.5436 30.2377 28.0523 30.6451L31.4584 33.1364C31.5934 33.2714 31.7633 33.3389 31.9682 33.3389C32.2382 33.3389 32.4419 33.2376 32.5793 33.0351Z" fill="white"/>
</svg>
