<svg width="58" height="58" viewBox="0 0 58 58" fill="none" xmlns="http://www.w3.org/2000/svg">
<path d="M0.61084 5.02705C0.61084 2.6307 2.55347 0.68808 4.94982 0.68808H52.6786C55.0749 0.68808 57.0175 2.63071 57.0175 5.02706V52.7558C57.0175 55.1521 55.0749 57.0948 52.6785 57.0948H4.94981C2.55346 57.0948 0.61084 55.1521 0.61084 52.7558V5.02705Z" fill="#F0A837"/>
<path d="M41.3214 25.1526C41.425 25.0514 41.5359 25.0345 41.654 25.102C41.7722 25.1695 41.8312 25.2707 41.8312 25.4057V35.7795C41.8312 36.4568 41.5938 37.033 41.1189 37.5078C40.644 37.9827 40.0679 38.2202 39.3905 38.2202H18.238C17.5607 38.2202 16.9846 37.9827 16.5097 37.5078C16.0348 37.033 15.7974 36.4568 15.7974 35.7795V25.4057C15.7974 25.2707 15.8564 25.1779 15.9745 25.1273C16.0927 25.0767 16.2035 25.0851 16.3072 25.1526C17.4257 26.0011 20.0351 27.9163 24.1354 30.8981C24.2029 30.9656 24.4319 31.1524 24.8224 31.4586C25.2129 31.7623 25.5263 31.9913 25.7625 32.1456C26.0012 32.2975 26.3061 32.4831 26.6773 32.7024C27.051 32.9242 27.4162 33.0857 27.7729 33.1869C28.1273 33.2882 28.4744 33.3388 28.8143 33.3388C29.1204 33.3388 29.4254 33.2966 29.7291 33.2123C30.0352 33.1279 30.3233 33.0254 30.5933 32.9049C30.8657 32.7868 31.1537 32.6265 31.4575 32.424C31.7636 32.2215 32.0179 32.0431 32.2204 31.8889C32.4253 31.737 32.6627 31.5598 32.9327 31.3573C33.2051 31.1524 33.3919 30.9994 33.4932 30.8981C37.4922 28.0175 40.1017 26.1024 41.3214 25.1526ZM28.8143 31.7117C28.5443 31.7117 28.2141 31.6189 27.8236 31.4333C27.4331 31.2452 27.1197 31.0753 26.8834 30.9234C26.6448 30.7716 26.2965 30.5173 25.8385 30.1605C25.3829 29.8037 25.137 29.6254 25.1009 29.6254C20.9668 26.6098 18.0187 24.4234 16.2566 23.0663C15.9504 22.83 15.7974 22.5082 15.7974 22.1009V21.1354C15.7974 20.4581 16.0348 19.882 16.5097 19.4071C16.9846 18.9322 17.5607 18.6948 18.238 18.6948H39.3905C40.0679 18.6948 40.644 18.9322 41.1189 19.4071C41.5938 19.882 41.8312 20.4581 41.8312 21.1354V22.1009C41.8312 22.5082 41.6782 22.83 41.372 23.0663C39.7111 24.3559 36.7631 26.5423 32.5277 29.6254C32.494 29.6254 32.2481 29.8037 31.7901 30.1605C31.3321 30.5173 30.9838 30.7716 30.7451 30.9234C30.5089 31.0753 30.1955 31.2452 29.805 31.4333C29.4169 31.6189 29.0867 31.7117 28.8143 31.7117Z" fill="white"/>
</svg>
