<svg width="50" height="52" viewBox="0 0 50 52" fill="none" xmlns="http://www.w3.org/2000/svg">
<path fill-rule="evenodd" clip-rule="evenodd" d="M32.3333 31.5496C32.3333 30.8202 32.6231 30.1207 33.1388 29.605C33.6545 29.0893 34.354 28.7996 35.0833 28.7996C35.8127 28.7996 36.5122 29.0893 37.0279 29.605C37.5436 30.1207 37.8333 30.8202 37.8333 31.5496V43.4167C37.8333 43.6598 37.7368 43.893 37.5649 44.0649C37.393 44.2368 37.1598 44.3334 36.9167 44.3334C36.6736 44.3334 36.4404 44.2368 36.2685 44.0649C36.0966 43.893 36 43.6598 36 43.4167V31.5496C36 31.3064 35.9034 31.0733 35.7315 30.9014C35.5596 30.7295 35.3265 30.6329 35.0833 30.6329C34.8402 30.6329 34.6071 30.7295 34.4352 30.9014C34.2633 31.0733 34.1667 31.3064 34.1667 31.5496V31.864C34.1667 32.1071 34.0701 32.3402 33.8982 32.5122C33.7263 32.6841 33.4931 32.7806 33.25 32.7806C33.0069 32.7806 32.7737 32.6841 32.6018 32.5122C32.4299 32.3402 32.3333 32.1071 32.3333 31.864V31.5496Z" fill="#F0A837"/>
<path fill-rule="evenodd" clip-rule="evenodd" d="M19.7338 19.5834C17.9224 19.5834 16.4759 20.1884 15.4823 21.1573C15.0192 21.6077 14.6498 22.1452 14.3954 22.7389C14.141 23.3327 14.0066 23.9709 14 24.6168C13.9911 25.2629 14.1135 25.9039 14.36 26.5012C14.6064 27.0984 14.9717 27.6393 15.4337 28.091C16.3898 29.0287 17.7776 29.62 19.5229 29.664L20.4167 29.6869V41.8282C20.4167 42.0729 20.6788 42.4753 21.2866 42.4992C21.8971 42.523 22.2198 42.1353 22.2473 41.8758L23.1438 33.3334H26.8563L27.7528 41.8767C27.7803 42.1353 28.1029 42.523 28.7134 42.4992C29.3212 42.4753 29.5833 42.0729 29.5833 41.8282V21.6441L30.8795 22.2335C31.8906 22.6927 32.5478 23.2785 32.9823 23.8056C33.459 24.3858 33.9118 25.1797 34.0301 26.0523L34.0319 26.0707L34.0338 26.0853C34.0814 26.5547 34.5288 26.9598 35.1026 26.9131C35.6526 26.8691 36.044 26.3942 36.0037 25.924C35.9631 25.5652 35.8819 25.2121 35.7617 24.8717C35.4967 24.0776 35.0871 23.3395 34.5535 22.6946C33.217 21.0702 30.7704 19.5834 26.4447 19.5834H19.7338ZM14.2026 19.8447C15.5776 18.5045 17.5026 17.7501 19.7338 17.7501H26.4438C31.2333 17.7501 34.2336 19.4202 35.9698 21.5295C36.6468 22.3487 37.1664 23.286 37.5024 24.2942C37.6491 24.7378 37.7811 25.2328 37.8288 25.759V25.7627C37.969 27.3457 36.7132 28.6227 35.2493 28.7409C33.7496 28.861 32.3746 27.8013 32.2114 26.2879C32.1509 25.8626 31.9053 25.3832 31.5661 24.9707C31.518 24.9126 31.4682 24.8561 31.4167 24.8011V41.8282C31.4167 43.2811 30.137 44.2775 28.7858 44.3307C27.4383 44.3838 26.0798 43.5002 25.9295 42.0665L25.2053 35.1667H24.7947L24.0705 42.0674C23.9202 43.5002 22.5617 44.3838 21.2142 44.3316C19.863 44.2784 18.5833 43.2811 18.5833 41.8282V31.4332C16.8188 31.2223 15.2925 30.5211 14.1494 29.3982C13.5117 28.7739 13.0071 28.0268 12.6663 27.202C12.3255 26.3771 12.1556 25.4918 12.1667 24.5994C12.1756 23.712 12.36 22.8351 12.7092 22.0192C13.0585 21.2033 13.5657 20.4646 14.2017 19.8456M20.4167 21.3773V27.8701L19.4597 27.8279C18.2442 27.7729 17.4091 27.3604 16.8701 26.8315C16.5808 26.5442 16.3526 26.2013 16.1992 25.8236C16.0458 25.4459 15.9703 25.041 15.9773 24.6333C15.9792 24.2208 16.063 23.8128 16.2238 23.433C16.3847 23.0531 16.6193 22.709 16.9141 22.4205C17.4613 21.8879 18.2882 21.4791 19.456 21.4232L20.4167 21.3773ZM18.5833 23.4682C18.3535 23.5692 18.1581 23.7348 18.0209 23.945C17.8837 24.1551 17.8106 24.4007 17.8106 24.6517C17.8069 25.0037 17.9362 25.3098 18.1543 25.5225C18.2405 25.6077 18.3762 25.7122 18.5833 25.8012V23.4682ZM25 9.50008C24.2707 9.50008 23.5712 9.78981 23.0555 10.3055C22.5397 10.8213 22.25 11.5207 22.25 12.2501C22.25 12.9794 22.5397 13.6789 23.0555 14.1946C23.5712 14.7104 24.2707 15.0001 25 15.0001C25.7294 15.0001 26.4288 14.7104 26.9446 14.1946C27.4603 13.6789 27.75 12.9794 27.75 12.2501C27.75 11.5207 27.4603 10.8213 26.9446 10.3055C26.4288 9.78981 25.7294 9.50008 25 9.50008ZM20.4167 12.2501C20.4167 11.0345 20.8996 9.86872 21.7591 9.00918C22.6186 8.14963 23.7844 7.66675 25 7.66675C26.2156 7.66675 27.3814 8.14963 28.2409 9.00918C29.1005 9.86872 29.5833 11.0345 29.5833 12.2501C29.5833 13.4657 29.1005 14.6314 28.2409 15.491C27.3814 16.3505 26.2156 16.8334 25 16.8334C23.7844 16.8334 22.6186 16.3505 21.7591 15.491C20.8996 14.6314 20.4167 13.4657 20.4167 12.2501Z" fill="#F0A837"/>
</svg>
