<svg width="44" height="44" viewBox="0 0 44 44" fill="none" xmlns="http://www.w3.org/2000/svg">
<g clip-path="url(#clip0_99_1011)">
<path d="M40.9322 32.1199C40.8463 31.8151 40.6453 31.5555 40.3717 31.3959C40.0981 31.2363 39.7732 31.1891 39.4656 31.2644L36.4222 32.0833C38.0876 29.6284 39.0973 26.7884 39.3556 23.8333C39.6052 21.0685 39.2009 18.2837 38.1754 15.704C37.1499 13.1244 35.5319 10.8221 33.4522 8.98328C33.2118 8.78443 32.9045 8.68506 32.5931 8.70551C32.2818 8.72596 31.9901 8.86469 31.7778 9.09328C31.5641 9.33652 31.4557 9.6546 31.4763 9.97769C31.497 10.3008 31.6449 10.6025 31.8878 10.8166C33.6799 12.3985 35.0741 14.3802 35.9574 16.6014C36.8408 18.8225 37.1884 21.2205 36.9722 23.6011C36.7624 26.1084 35.9214 28.5218 34.5278 30.6166L34.2222 27.5488C34.2453 27.3683 34.2277 27.1849 34.1708 27.012C34.1139 26.8391 34.0191 26.6811 33.8933 26.5495C33.7676 26.418 33.614 26.3162 33.4439 26.2515C33.2737 26.1869 33.0913 26.1611 32.9099 26.176C32.7285 26.1908 32.5527 26.246 32.3954 26.3376C32.238 26.4291 32.1031 26.5545 32.0005 26.7049C31.8979 26.8552 31.8301 27.0265 31.8021 27.2063C31.7742 27.3862 31.7867 27.57 31.8389 27.7444L32.45 35.6155L40.0889 33.5866C40.3915 33.4981 40.6482 33.2961 40.8053 33.0228C40.9625 32.7495 41.008 32.426 40.9322 32.1199Z" fill="#F0A837"/>
<path d="M5.26777 20.8755C5.43092 20.9786 5.61434 21.0453 5.80555 21.0711C6.12453 21.1129 6.44714 21.0273 6.7034 20.8329C6.95967 20.6384 7.12892 20.3507 7.17444 20.0322C7.67946 16.3034 9.57447 12.903 12.48 10.512C15.3855 8.12091 19.087 6.91574 22.8433 7.13777L20.1056 9.00777C19.9118 9.1537 19.7659 9.35397 19.6864 9.58308C19.6068 9.81219 19.5972 10.0598 19.6588 10.2944C19.7204 10.5289 19.8504 10.7399 20.0323 10.9004C20.2141 11.0609 20.4396 11.1636 20.68 11.1955C20.9554 11.2207 21.2311 11.1518 21.4622 11L27.9767 6.52666L22.4033 0.928881C22.3042 0.776912 22.1724 0.648934 22.0176 0.554239C21.8628 0.459544 21.6888 0.400508 21.5084 0.381417C21.3279 0.362325 21.1455 0.383658 20.9743 0.443866C20.8031 0.504075 20.6475 0.601647 20.5187 0.7295C20.3899 0.857353 20.2912 1.01228 20.2298 1.18303C20.1683 1.35378 20.1457 1.53607 20.1635 1.71666C20.1812 1.89725 20.239 2.07162 20.3326 2.2271C20.4262 2.38258 20.5532 2.51528 20.7044 2.61555L22.7822 4.69333C18.4443 4.48591 14.1863 5.91233 10.8488 8.69098C7.51123 11.4696 5.33669 15.3986 4.75444 19.7022C4.7231 19.9261 4.75449 20.1544 4.84512 20.3615C4.93575 20.5686 5.08205 20.7466 5.26777 20.8755Z" fill="#F0A837"/>
<path d="M26.5589 36.5811C24.6503 37.1907 22.6371 37.4029 20.6433 37.2044C18.2152 36.9664 15.8815 36.141 13.8437 34.7995C11.8059 33.458 10.1252 31.6407 8.94667 29.5044L11.99 30.6411C12.2705 30.6897 12.5593 30.6389 12.8063 30.4974C13.0534 30.3559 13.2433 30.1326 13.3433 29.866C13.4433 29.5994 13.447 29.3063 13.3539 29.0372C13.2608 28.7681 13.0767 28.54 12.8333 28.3922L7.22334 26.3144L5.42667 25.6666L4.07 33.4277C4.02297 33.7379 4.09698 34.0542 4.27671 34.3113C4.45644 34.5684 4.72813 34.7465 5.03556 34.8088H5.24334C5.531 34.8141 5.81129 34.7177 6.03486 34.5366C6.25842 34.3555 6.41094 34.1013 6.46556 33.8188L6.97889 30.8855C8.36126 33.3071 10.3029 35.3628 12.6418 36.8809C14.9806 38.399 17.6487 39.3355 20.4233 39.6122C22.7431 39.8424 25.0854 39.5928 27.3044 38.8788C27.587 38.7618 27.8154 38.5432 27.9446 38.266C28.0738 37.9888 28.0944 37.6732 28.0023 37.3816C27.9102 37.0899 27.7122 36.8434 27.4472 36.6907C27.1822 36.538 26.8696 36.4901 26.5711 36.5566L26.5589 36.5811Z" fill="#F0A837"/>
<path d="M26.8889 15.8889H17.1111C16.787 15.8889 16.4761 16.0177 16.2469 16.2469C16.0177 16.4761 15.8889 16.787 15.8889 17.1111V26.8889C15.8889 27.2131 16.0177 27.5239 16.2469 27.7532C16.4761 27.9824 16.787 28.1111 17.1111 28.1111H26.8889C27.213 28.1111 27.5239 27.9824 27.7531 27.7532C27.9823 27.5239 28.1111 27.2131 28.1111 26.8889V17.1111C28.1111 16.787 27.9823 16.4761 27.7531 16.2469C27.5239 16.0177 27.213 15.8889 26.8889 15.8889ZM25.6667 25.6667H18.3333V18.3334H25.6667V25.6667Z" fill="#F0A837"/>
</g>
<defs>
<clipPath id="clip0_99_1011">
<rect width="44" height="44" fill="white"/>
</clipPath>
</defs>
</svg>
