<svg width="50" height="52" viewBox="0 0 50 52" fill="none" xmlns="http://www.w3.org/2000/svg">
<path d="M8.555 27.9763C8.25979 27.359 8.10657 26.6834 8.10657 25.9991C8.10657 25.3148 8.25979 24.6392 8.555 24.0218C8.81166 23.4828 9.25166 22.9658 10.1317 21.9318C10.4837 21.5193 10.6597 21.314 10.8063 21.094C11.1438 20.5907 11.3781 20.0256 11.4957 19.4312C11.547 19.1708 11.569 18.9013 11.6112 18.3623C11.7193 17.0093 11.7725 16.3328 11.9723 15.7663C12.2005 15.1213 12.5703 14.5356 13.0544 14.0521C13.5385 13.5687 14.1247 13.1997 14.77 12.9723C15.3347 12.7725 16.0112 12.7175 17.366 12.6112C17.905 12.5672 18.1727 12.5452 18.433 12.4938C19.028 12.3765 19.5938 12.1422 20.0977 11.8045C20.3177 11.6578 20.523 11.4837 20.9337 11.1317C21.9677 10.2517 22.4847 9.81167 23.0237 9.55317C23.641 9.25796 24.3166 9.10474 25.0009 9.10474C25.6852 9.10474 26.3608 9.25796 26.9782 9.55317C27.519 9.80983 28.036 10.2498 29.0682 11.1317C29.4807 11.4837 29.686 11.6578 29.906 11.8045C30.4098 12.1422 30.9756 12.3765 31.5707 12.4938C31.8292 12.5452 32.0987 12.5672 32.6377 12.6112C33.9925 12.7175 34.669 12.7725 35.2337 12.9723C35.8786 13.1999 36.4645 13.569 36.9482 14.0525C37.432 14.5359 37.8015 15.1215 38.0295 15.7663M11.9723 36.2318C12.2004 36.8766 12.5698 37.4622 13.0536 37.9457C13.5374 38.4292 14.1232 38.7982 14.7682 39.0258C15.3328 39.2275 16.0093 39.2807 17.3642 39.387C17.9032 39.431 18.1708 39.453 18.4312 39.5043C19.0262 39.6217 19.592 39.856 20.0958 40.1937C20.3158 40.3403 20.5212 40.5145 20.9318 40.8665C21.9658 41.7465 22.4828 42.1865 23.0218 42.445C23.6392 42.7402 24.3148 42.8934 24.9991 42.8934C25.6834 42.8934 26.359 42.7402 26.9763 42.445C27.5172 42.1883 28.0342 41.7483 29.0663 40.8665C29.3322 40.626 29.612 40.4014 29.9042 40.1937C30.408 39.856 30.9738 39.6217 31.5688 39.5043C31.8273 39.453 32.0968 39.431 32.6358 39.387C33.9907 39.2807 34.6672 39.2257 35.2318 39.0258C35.8768 38.7982 36.4626 38.4292 36.9464 37.9457C37.4302 37.4622 37.7996 36.8766 38.0277 36.2318C38.2275 35.6672 38.2807 34.9888 38.3888 33.6358C38.431 33.0968 38.453 32.8273 38.5043 32.567C38.6217 31.973 38.8563 31.4065 39.1937 30.9042C39.3403 30.6842 39.5163 30.4788 39.8665 30.0663C40.7465 29.0323 41.1883 28.5153 41.4468 27.9763C41.742 27.359 41.8953 26.6834 41.8953 25.9991C41.8953 25.3148 41.742 24.6392 41.4468 24.0218M19.5 31.5L30.5 20.5" stroke="#F0A837" stroke-width="2" stroke-linecap="round"/>
<path d="M31.4167 30.5833C31.4167 31.0695 31.2235 31.5358 30.8797 31.8796C30.5359 32.2234 30.0696 32.4166 29.5833 32.4166C29.0971 32.4166 28.6308 32.2234 28.287 31.8796C27.9431 31.5358 27.75 31.0695 27.75 30.5833C27.75 30.097 27.9431 29.6307 28.287 29.2869C28.6308 28.9431 29.0971 28.7499 29.5833 28.7499C30.0696 28.7499 30.5359 28.9431 30.8797 29.2869C31.2235 29.6307 31.4167 30.097 31.4167 30.5833ZM22.25 21.4166C22.25 21.9028 22.0568 22.3691 21.713 22.7129C21.3692 23.0568 20.9029 23.2499 20.4167 23.2499C19.9304 23.2499 19.4641 23.0568 19.1203 22.7129C18.7765 22.3691 18.5833 21.9028 18.5833 21.4166C18.5833 20.9304 18.7765 20.464 19.1203 20.1202C19.4641 19.7764 19.9304 19.5833 20.4167 19.5833C20.9029 19.5833 21.3692 19.7764 21.713 20.1202C22.0568 20.464 22.25 20.9304 22.25 21.4166Z" fill="#F0A837"/>
</svg>
