<svg width="42" height="46" viewBox="0 0 42 46" fill="none" xmlns="http://www.w3.org/2000/svg">
<path d="M20.1875 18.9375H18.5625C18.024 18.9381 17.5077 19.1524 17.1269 19.5332C16.7461 19.9139 16.5319 20.4302 16.5312 20.9688V26.25C16.5312 26.4655 16.6169 26.6722 16.7692 26.8245C16.9216 26.9769 17.1283 27.0625 17.3438 27.0625C17.5592 27.0625 17.7659 26.9769 17.9183 26.8245C18.0706 26.6722 18.1562 26.4655 18.1562 26.25V23.8125H20.5938V26.25C20.5938 26.4655 20.6794 26.6722 20.8317 26.8245C20.9841 26.9769 21.1908 27.0625 21.4062 27.0625C21.6217 27.0625 21.8284 26.9769 21.9808 26.8245C22.1331 26.6722 22.2188 26.4655 22.2188 26.25V20.9688C22.2181 20.4302 22.0039 19.9139 21.6231 19.5332C21.2423 19.1524 20.726 18.9381 20.1875 18.9375ZM18.1562 22.1875V20.9688C18.1562 20.861 18.1991 20.7577 18.2752 20.6815C18.3514 20.6053 18.4548 20.5625 18.5625 20.5625H20.1875C20.2952 20.5625 20.3986 20.6053 20.4748 20.6815C20.5509 20.7577 20.5938 20.861 20.5938 20.9688V22.1875H18.1562ZM23.8438 19.75V26.25C23.8438 26.4655 23.9294 26.6722 24.0817 26.8245C24.2341 26.9769 24.4408 27.0625 24.6562 27.0625C24.8717 27.0625 25.0784 26.9769 25.2308 26.8245C25.3831 26.6722 25.4688 26.4655 25.4688 26.25V19.75C25.4688 19.5345 25.3831 19.3278 25.2308 19.1755C25.0784 19.0231 24.8717 18.9375 24.6562 18.9375C24.4408 18.9375 24.2341 19.0231 24.0817 19.1755C23.9294 19.3278 23.8438 19.5345 23.8438 19.75Z" fill="#F0A837"/>
<path d="M40.7195 11.6258C38.2788 7.38294 29.0634 9.31669 21.014 13.1168L21.0132 13.1176C19.1462 12.2299 17.2258 11.4592 15.2631 10.8101C16.6614 5.24931 18.9153 1.875 21.0197 1.875C21.4504 1.90686 21.87 2.02703 22.2523 2.22804C22.6346 2.42904 22.9714 2.70658 23.2418 3.04338C23.3138 3.12591 23.4018 3.19304 23.5004 3.24072C23.599 3.28839 23.7063 3.31564 23.8157 3.32082C23.9251 3.32599 24.0344 3.30899 24.1371 3.27084C24.2398 3.23268 24.3337 3.17416 24.4132 3.09879C24.4926 3.02342 24.5561 2.93276 24.5996 2.83225C24.6432 2.73175 24.6659 2.62348 24.6666 2.51394C24.6672 2.40441 24.6457 2.29588 24.6033 2.19487C24.5609 2.09387 24.4986 2.00248 24.42 1.92619C24.0014 1.42532 23.4828 1.01747 22.8974 0.728815C22.3119 0.440158 21.6726 0.277065 21.0205 0.25C17.9281 0.25 15.2582 4.215 13.7039 10.3339C7.62884 8.622 2.86515 8.95025 1.3214 11.625C-1.1356 15.8768 5.1239 22.857 12.4624 27.9351C12.6267 30.0115 12.9214 32.0756 13.3448 34.115C7.81165 35.7116 3.80521 35.4264 2.72703 33.5601C2.53949 33.173 2.43369 32.7515 2.41622 32.3218C2.39874 31.8921 2.46997 31.4634 2.62546 31.0624C2.65571 30.9601 2.66551 30.8528 2.6543 30.7467C2.64309 30.6406 2.61109 30.5377 2.56012 30.444C2.50916 30.3503 2.44023 30.2675 2.35727 30.2004C2.27431 30.1333 2.17895 30.0832 2.07662 30.0529C1.9743 30.0227 1.86702 30.0129 1.7609 30.0241C1.65479 30.0353 1.55193 30.0673 1.45819 30.1182C1.36444 30.1692 1.28165 30.2381 1.21455 30.3211C1.14745 30.4041 1.09734 30.4994 1.06709 30.6017C0.843489 31.2135 0.750454 31.8653 0.793974 32.5151C0.837495 33.165 1.0166 33.7985 1.31978 34.375C2.23546 35.961 4.28378 36.7231 7.06659 36.7231C9.31626 36.6685 11.5484 36.3119 13.7031 35.6628C15.2558 41.785 17.9265 45.75 21.0197 45.75C25.9328 45.75 28.8481 36.8409 29.5785 27.9384C31.2814 26.7658 32.9096 25.4882 34.4535 24.1131C38.5664 28.1033 40.3628 31.7409 39.3139 33.5601C39.0728 33.9163 38.761 34.2192 38.3979 34.4499C38.0347 34.6805 37.628 34.8339 37.203 34.9007C36.9934 34.9508 36.8122 35.0821 36.6993 35.2658C36.5865 35.4495 36.5513 35.6705 36.6014 35.8802C36.6515 36.0898 36.7828 36.271 36.9665 36.3838C37.1502 36.4967 37.3712 36.5319 37.5808 36.4818C38.2206 36.3648 38.8294 36.1173 39.3693 35.7549C39.9093 35.3924 40.3689 34.9227 40.7195 34.375C42.2641 31.6986 40.1662 27.4054 35.6446 23C40.1662 18.5946 42.2641 14.3014 40.7195 11.6258ZM12.2609 23C12.2609 23.9661 12.2853 24.9134 12.3283 25.8446C5.28965 20.7193 1.20034 15.0814 2.72784 12.4375C3.8044 10.5728 7.81165 10.2876 13.344 11.885C12.6024 15.543 12.2395 19.2676 12.2609 23ZM21.0197 44.125C18.9153 44.125 16.6614 40.7499 15.2631 35.1908C18.7901 34.0058 22.1865 32.4626 25.399 30.5855C26.2375 30.1007 27.0495 29.6054 27.8349 29.0994C26.9135 37.7639 24.0755 44.125 21.0197 44.125ZM24.5865 29.1782C21.5141 30.9761 18.2713 32.4656 14.9056 33.6251C14.207 30.127 13.8653 26.5671 13.8859 23C13.8652 19.4327 14.2069 15.8724 14.9056 12.3741C18.2714 13.5337 21.5142 15.0235 24.5865 16.8218C27.6757 18.5837 30.5786 20.6537 33.251 23C30.5786 25.3464 27.6757 27.4163 24.5865 29.1782ZM34.4535 21.8869C31.6643 19.4258 28.6303 17.2571 25.399 15.4145C24.56 14.9308 23.7253 14.4758 22.8949 14.0495C30.8542 10.5249 37.7978 9.805 39.3123 12.4375C40.3628 14.2575 38.5664 17.8967 34.4535 21.8869Z" fill="#F0A837"/>
<path d="M23.8843 6.66223C23.8843 7.14432 24.0273 7.61559 24.2951 8.01643C24.563 8.41728 24.9437 8.7297 25.389 8.91419C25.8344 9.09868 26.3245 9.14695 26.7974 9.0529C27.2702 8.95884 27.7045 8.72669 28.0454 8.3858C28.3863 8.04491 28.6185 7.61059 28.7125 7.13776C28.8066 6.66494 28.7583 6.17484 28.5738 5.72944C28.3893 5.28405 28.0769 4.90336 27.676 4.63552C27.2752 4.36769 26.8039 4.22473 26.3218 4.22473C25.6756 4.22538 25.056 4.48239 24.599 4.93937C24.142 5.39635 23.885 6.01596 23.8843 6.66223ZM26.3218 5.84973C26.4825 5.84973 26.6396 5.89738 26.7732 5.98666C26.9069 6.07594 27.011 6.20284 27.0725 6.3513C27.134 6.49977 27.1501 6.66313 27.1187 6.82074C27.0874 6.97835 27.01 7.12313 26.8964 7.23676C26.7827 7.35039 26.638 7.42777 26.4804 7.45912C26.3227 7.49047 26.1594 7.47438 26.0109 7.41288C25.8624 7.35139 25.7355 7.24725 25.6463 7.11363C25.557 6.98002 25.5093 6.82293 25.5093 6.66223C25.5093 6.44674 25.5949 6.24008 25.7473 6.08771C25.8997 5.93533 26.1064 5.84973 26.3218 5.84973ZM4.22021 29.0149C4.70231 29.0149 5.17357 28.872 5.57442 28.6041C5.97526 28.3363 6.28768 27.9556 6.47217 27.5102C6.65666 27.0648 6.70493 26.5747 6.61088 26.1019C6.51683 25.6291 6.28468 25.1947 5.94379 24.8538C5.6029 24.513 5.16858 24.2808 4.69575 24.1868C4.22292 24.0927 3.73282 24.141 3.28742 24.3255C2.84203 24.51 2.46134 24.8224 2.19351 25.2232C1.92567 25.6241 1.78271 26.0953 1.78271 26.5774C1.78336 27.2237 2.04038 27.8433 2.49736 28.3003C2.95434 28.7573 3.57395 29.0143 4.22021 29.0149ZM4.22021 25.7649C4.38091 25.7649 4.538 25.8126 4.67162 25.9018C4.80523 25.9911 4.90937 26.118 4.97087 26.2665C5.03236 26.415 5.04845 26.5783 5.0171 26.7359C4.98575 26.8935 4.90837 27.0383 4.79474 27.1519C4.68111 27.2656 4.53634 27.343 4.37873 27.3743C4.22112 27.4057 4.05775 27.3896 3.90929 27.3281C3.76082 27.2666 3.63392 27.1624 3.54465 27.0288C3.45537 26.8952 3.40771 26.7381 3.40771 26.5774C3.40771 26.3619 3.49332 26.1553 3.64569 26.0029C3.79806 25.8505 4.00473 25.7649 4.22021 25.7649ZM32.518 33.3228C32.0359 33.3228 31.5646 33.4657 31.1638 33.7336C30.7629 34.0014 30.4505 34.3821 30.266 34.8275C30.0815 35.2729 30.0332 35.763 30.1273 36.2358C30.2214 36.7087 30.4535 37.143 30.7944 37.4839C31.1353 37.8248 31.5696 38.0569 32.0424 38.151C32.5153 38.245 33.0054 38.1967 33.4508 38.0122C33.8962 37.8278 34.2768 37.5153 34.5447 37.1145C34.8125 36.7136 34.9555 36.2424 34.9555 35.7603C34.9548 35.114 34.6978 34.4944 34.2408 34.0374C33.7838 33.5805 33.1642 33.3234 32.518 33.3228ZM32.518 36.5728C32.3573 36.5728 32.2002 36.5251 32.0666 36.4359C31.9329 36.3466 31.8288 36.2197 31.7673 36.0712C31.7058 35.9228 31.6897 35.7594 31.7211 35.6018C31.7524 35.4442 31.8298 35.2994 31.9434 35.1858C32.0571 35.0721 32.2018 34.9948 32.3595 34.9634C32.5171 34.9321 32.6804 34.9481 32.8289 35.0096C32.9774 35.0711 33.1043 35.1753 33.1935 35.3089C33.2828 35.4425 33.3305 35.5996 33.3305 35.7603C33.3305 35.9758 33.2449 36.1824 33.0925 36.3348C32.9401 36.4872 32.7335 36.5728 32.518 36.5728Z" fill="#F0A837"/>
</svg>
