<svg width="46" height="46" viewBox="0 0 46 46" fill="none" xmlns="http://www.w3.org/2000/svg">
<path d="M18.9844 32.168C19.4695 32.168 19.8633 31.7742 19.8633 31.2891C19.8633 30.8039 19.4695 30.4102 18.9844 30.4102C18.4992 30.4102 18.1055 30.8039 18.1055 31.2891C18.1055 31.7742 18.4992 32.168 18.9844 32.168Z" fill="#F0A837"/>
<path d="M0.263218 34.9555L11.0452 45.7368C11.1286 45.8202 11.2277 45.8864 11.3367 45.9316C11.4457 45.9768 11.5625 46 11.6805 46C11.7985 46 11.9153 45.9768 12.0243 45.9316C12.1333 45.8864 12.2323 45.8202 12.3157 45.7368L18.2458 39.8071C18.3293 39.7237 18.3955 39.6247 18.4406 39.5157C18.4858 39.4067 18.5091 39.2899 18.5091 39.1719C18.5091 39.0539 18.4858 38.9371 18.4406 38.8281C18.3955 38.7191 18.3293 38.6201 18.2458 38.5367L17.9826 38.2735H30.9345C32.072 38.2735 33.1575 37.8471 33.9946 37.07L44.8949 26.8549C45.9383 25.8859 46.284 24.3466 45.7547 23.0249C45.5668 22.5534 45.2774 22.129 44.907 21.7819C44.5367 21.4348 44.0944 21.1735 43.6117 21.0165C43.1294 20.8581 42.6181 20.8078 42.1141 20.8693C41.6102 20.9307 41.1259 21.1023 40.6958 21.372C40.6901 21.3755 38.2758 22.9597 38.2758 22.9597C38.2593 18.0895 35.3157 12.8961 31.2636 10.5581C31.5004 10.2858 31.6802 9.96885 31.7925 9.62596C32.2562 8.21541 31.4854 6.68878 30.0728 6.2224C30.0285 6.20767 29.9843 6.19464 29.9401 6.18099L32.253 2.02643C32.3188 1.9085 32.357 1.77726 32.365 1.64248C32.373 1.50771 32.3504 1.37287 32.299 1.24802C32.2478 1.12309 32.169 1.01133 32.0686 0.921086C31.9681 0.830843 31.8486 0.764442 31.7189 0.726837C30.0605 0.244645 28.3368 0 26.5956 0C24.8548 0 23.1308 0.244645 21.4724 0.726477C21.3426 0.764125 21.2231 0.830542 21.1226 0.920784C21.0221 1.01103 20.9432 1.12277 20.8919 1.2477C20.8406 1.37263 20.8181 1.50753 20.8261 1.64235C20.8341 1.77718 20.8724 1.90846 20.9382 2.02643L23.2511 6.18099C23.2062 6.195 23.1613 6.20839 23.1163 6.22312C21.7058 6.68878 20.9354 8.21505 21.399 9.62659C21.5121 9.96921 21.6926 10.2857 21.93 10.5574C17.8176 12.9301 14.9151 18.1768 14.9151 23C14.9151 23.1316 14.9182 23.2615 14.9225 23.3903C13.3132 23.8293 11.8171 24.6292 10.5588 25.7307L7.82815 28.1197L7.46381 27.7555C7.3804 27.672 7.28137 27.6058 7.17238 27.5607C7.06338 27.5155 6.94655 27.4923 6.82857 27.4923C6.71059 27.4923 6.59376 27.5155 6.48476 27.5607C6.37577 27.6058 6.27674 27.672 6.19333 27.7555L0.263218 33.6852C0.17977 33.7686 0.113574 33.8676 0.0684098 33.9766C0.023246 34.0856 0 34.2024 0 34.3203C0 34.4383 0.023246 34.5551 0.0684098 34.6641C0.113574 34.7731 0.17977 34.8721 0.263218 34.9555ZM23.0764 2.17278C24.2276 1.92284 25.4069 1.79688 26.5956 1.79688C27.7843 1.79688 28.9636 1.92284 30.1152 2.17278L28.1129 5.76887C27.1064 5.62814 26.0852 5.62814 25.0787 5.76887L23.0764 2.17278ZM23.6773 7.93016C25.521 7.32685 27.531 7.28121 29.5115 7.92944C29.9829 8.08487 30.2402 8.59446 30.0854 9.06479C30.0298 9.23594 29.9239 9.38631 29.7814 9.49621C29.6389 9.6061 29.4665 9.6704 29.2869 9.68067C27.5151 9.11735 25.6749 9.11636 23.904 9.67888H23.9036C23.5343 9.65579 23.2209 9.41429 23.1058 9.06506C22.951 8.5941 23.2083 8.08451 23.6773 7.93016ZM24.1741 11.4835C25.7321 10.9223 27.3463 10.909 28.9082 11.4457C33.0828 12.8809 36.4791 18.0643 36.4791 23C36.4791 23.4183 36.4528 23.8171 36.4009 24.1897L32.082 27.023C31.4136 26.1949 30.4002 25.6953 29.2911 25.6953H27.4941V24.6425C28.54 24.2715 29.2911 23.2727 29.2911 22.1016C29.2911 20.6153 28.082 19.4063 26.5956 19.4063C26.1004 19.4063 25.6971 19.0034 25.6971 18.5078C25.6971 18.0123 26.1004 17.6094 26.5956 17.6094C26.9139 17.6094 27.2498 17.7719 27.5674 18.079C27.9241 18.424 28.493 18.4145 28.838 18.0583C29.183 17.7017 29.1735 17.1328 28.817 16.7878C28.361 16.3463 27.9047 16.0969 27.4941 15.9606V14.9141C27.4941 14.4179 27.0919 14.0156 26.5956 14.0156C26.0994 14.0156 25.6971 14.4179 25.6971 14.9141V15.967C24.6515 16.3379 23.9001 17.3367 23.9001 18.5078C23.9001 19.9941 25.1092 21.2031 26.5956 21.2031C27.0912 21.2031 27.4941 21.606 27.4941 22.1016C27.4941 22.5972 27.0912 23 26.5956 23C26.2117 23 25.7975 22.7585 25.429 22.3203C25.1096 21.9405 24.5427 21.8913 24.163 22.2107C23.7832 22.5301 23.7341 23.0969 24.0535 23.4766C24.5336 24.048 25.0987 24.446 25.6971 24.6467V25.6953H25.3981C24.9566 25.6953 24.7583 25.4076 24.4473 25.2065C22.5488 23.7837 20.1974 23 17.8253 23C17.4544 23 17.0827 23.0193 16.7128 23.0569C16.7128 23.0379 16.7121 23.0193 16.7121 23C16.7121 18.1334 20.0597 12.9673 24.1741 11.4835ZM11.7424 27.0826C13.4305 25.6044 15.5997 24.7969 17.8253 24.7969C19.8111 24.7969 21.7797 25.4528 23.3683 26.6436C23.5974 26.7777 24.2355 27.4922 25.3976 27.4922H29.2911C30.3139 27.4922 31.0881 28.3236 31.0881 29.2891C31.0881 30.2798 30.2819 31.086 29.2911 31.086H23.0016C22.5054 31.086 22.1031 31.4882 22.1031 31.9844C22.1031 32.4806 22.5054 32.8828 23.0016 32.8828H29.2911C31.2728 32.8828 32.8851 31.2706 32.8851 29.2891C32.8851 29.0831 32.8669 28.8799 32.8325 28.6799L41.6558 22.8912C41.8625 22.7632 42.0947 22.6819 42.3362 22.653C42.5777 22.6242 42.8225 22.6484 43.0536 22.7241C43.2862 22.7999 43.4993 22.926 43.6778 23.0933C43.8562 23.2606 43.9957 23.4652 44.0862 23.6924C44.3456 24.3396 44.1827 25.0644 43.6689 25.5413L32.7689 35.7561C32.2707 36.2198 31.6151 36.4773 30.9344 36.4766H16.1857L9.10187 29.393L11.7424 27.0826ZM6.82866 29.6611L16.3401 39.1719L11.6805 43.8312L2.16894 34.3203L6.82866 29.6611Z" fill="#F0A837"/>
</svg>
