<svg width="52" height="52" viewBox="0 0 52 52" fill="none" xmlns="http://www.w3.org/2000/svg">
<path d="M26.094 45C39.2121 45 44.1879 42.2856 44.1879 32.3329M10.5359 36.6605C9.01236 36.2796 8 34.8889 8 33.3191V27.7293C8 26.1586 9.01236 24.767 10.5359 24.3861C12.0069 24.0178 13.9393 23.6043 15.8392 23.4053C17.1402 23.2686 18.2855 24.0314 18.5017 25.3207C18.6917 26.4463 18.8564 28.1174 18.8564 30.5233C18.8564 32.93 18.6908 34.6012 18.5017 35.7259C18.2846 37.0152 17.1402 37.7779 15.8392 37.6422C13.9393 37.4432 12.0069 37.0288 10.5359 36.6605Z" stroke="#F0A837" stroke-width="2" stroke-linecap="round" stroke-linejoin="round"/>
<path d="M41.6545 36.6605C43.178 36.2796 44.1904 34.8889 44.1904 33.3191V27.7293C44.1904 26.1586 43.178 24.767 41.6545 24.3861C40.1835 24.0178 38.251 23.6043 36.3512 23.4053C35.0502 23.2686 33.9048 24.0314 33.6886 25.3207C33.4986 26.4463 33.334 28.1174 33.334 30.5233C33.334 32.93 33.4995 34.6012 33.6886 35.7259C33.9058 37.0152 35.0502 37.7779 36.3512 37.6422C38.251 37.4432 40.1835 37.0288 41.6545 36.6605Z" stroke="#F0A837" stroke-width="2" stroke-linecap="round" stroke-linejoin="round"/>
<path d="M44.1879 27.7298V25.0959C44.1879 15.1015 36.0873 7 26.094 7C16.1007 7 8 15.1015 8 25.0959V27.7298M38.7199 23.7505C38.2043 17.4142 32.7489 12.4288 26.094 12.4288C19.439 12.4288 13.9837 17.4142 13.468 23.7505" stroke="#F0A837" stroke-width="2" stroke-linecap="round" stroke-linejoin="round"/>
</svg>
