<svg width="34" height="34" viewBox="0 0 34 34" fill="none" xmlns="http://www.w3.org/2000/svg">
<circle cx="17" cy="17" r="17" fill="#F0A837" fill-opacity="0.05"/>
<g clip-path="url(#clip0_1846_3009)">
<path d="M24.5 16.31V17C24.4991 18.6173 23.9754 20.191 23.007 21.4864C22.0386 22.7817 20.6775 23.7294 19.1265 24.1879C17.5756 24.6465 15.9179 24.5914 14.4009 24.031C12.8838 23.4705 11.5885 22.4346 10.7082 21.0778C9.82795 19.721 9.40984 18.1161 9.51626 16.5023C9.62267 14.8884 10.2479 13.3523 11.2987 12.1228C12.3495 10.8934 13.7696 10.0366 15.3471 9.68013C16.9247 9.3237 18.5752 9.48677 20.0525 10.145" stroke="#F0A837" stroke-width="1.66667" stroke-linecap="round" stroke-linejoin="round"/>
<path d="M14.75 16.25L17 18.5L24.5 11" stroke="#F0A837" stroke-width="1.66667" stroke-linecap="round" stroke-linejoin="round"/>
</g>
<defs>
<clipPath id="clip0_1846_3009">
<rect width="18" height="18" fill="white" transform="translate(8 8)"/>
</clipPath>
</defs>
</svg>
