<svg width="59" height="59" viewBox="0 0 59 59" fill="none" xmlns="http://www.w3.org/2000/svg">
<rect width="59" height="59" rx="8.42857" fill="#F0A837" fill-opacity="0.19"/>
<path d="M37 34H34.475C34.3259 34.0001 34.1788 34.0339 34.0446 34.0988C33.9104 34.1638 33.7926 34.2582 33.7 34.375L30.775 38.025C30.6813 38.1422 30.5625 38.2367 30.4273 38.3017C30.2921 38.3667 30.144 38.4005 29.994 38.4005C29.844 38.4005 29.6959 38.3667 29.5607 38.3017C29.4255 38.2367 29.3067 38.1422 29.213 38.025L26.288 34.375C26.1953 34.258 26.0773 34.1636 25.9429 34.0986C25.8086 34.0337 25.6612 34 25.512 34H23C21.338 34 20 32.662 20 31V24C20 22.338 21.338 21 23 21H37C38.663 21 40 22.338 40 24V31C40 32.662 38.663 34 37 34Z" fill="#F0A837"/>
</svg>
