<svg width="40" height="40" viewBox="0 0 40 40" fill="none" xmlns="http://www.w3.org/2000/svg">
<circle cx="20" cy="20" r="20" fill="#F5F5F5"/>
<path d="M24.5833 15.8333H13.75C13.4188 15.8343 13.1014 15.9663 12.8672 16.2006C12.633 16.4348 12.501 16.7521 12.5 17.0833V22.1375C12.6357 22.1003 12.7759 22.0821 12.9167 22.0833H25.4167C25.5574 22.0821 25.6976 22.1003 25.8333 22.1375V17.0833C25.8323 16.7521 25.7003 16.4348 25.4661 16.2006C25.2319 15.9663 24.9145 15.8343 24.5833 15.8333ZM16.1833 17.7292C15.8587 18.2229 15.593 18.7529 15.3917 19.3083C15.2042 19.8207 15.0715 20.3514 14.9958 20.8917C14.9818 20.9911 14.9323 21.0821 14.8565 21.1479C14.7807 21.2137 14.6837 21.25 14.5833 21.25C14.5638 21.2506 14.5443 21.2492 14.525 21.2458C14.4156 21.2304 14.3168 21.1721 14.2504 21.0838C14.184 20.9955 14.1554 20.8844 14.1708 20.775C14.2555 20.1781 14.4021 19.5916 14.6083 19.025C14.7469 18.6442 14.9127 18.2738 15.1042 17.9167H14.1667C14.0562 17.9167 13.9502 17.8728 13.872 17.7946C13.7939 17.7165 13.75 17.6105 13.75 17.5C13.75 17.3895 13.7939 17.2835 13.872 17.2054C13.9502 17.1272 14.0562 17.0833 14.1667 17.0833H15.8333C15.9082 17.0834 15.9818 17.1035 16.0462 17.1416C16.1107 17.1797 16.1638 17.2344 16.2 17.3C16.2354 17.3666 16.2525 17.4415 16.2495 17.5168C16.2466 17.5922 16.2238 17.6655 16.1833 17.7292ZM20.35 17.7292C20.0254 18.2229 19.7597 18.7529 19.5583 19.3083C19.3709 19.8207 19.2382 20.3514 19.1625 20.8917C19.1484 20.9911 19.099 21.0821 19.0232 21.1479C18.9474 21.2137 18.8504 21.25 18.75 21.25C18.7305 21.2506 18.7109 21.2492 18.6917 21.2458C18.5823 21.2304 18.4835 21.1721 18.4171 21.0838C18.3507 20.9955 18.322 20.8844 18.3375 20.775C18.4222 20.1781 18.5688 19.5916 18.775 19.025C18.9136 18.6442 19.0793 18.2738 19.2708 17.9167H18.3333C18.2228 17.9167 18.1168 17.8728 18.0387 17.7946C17.9606 17.7165 17.9167 17.6105 17.9167 17.5C17.9167 17.3895 17.9606 17.2835 18.0387 17.2054C18.1168 17.1272 18.2228 17.0833 18.3333 17.0833H20C20.0749 17.0834 20.1484 17.1035 20.2129 17.1416C20.2774 17.1797 20.3305 17.2344 20.3667 17.3C20.402 17.3666 20.4191 17.4415 20.4162 17.5168C20.4133 17.5922 20.3904 17.6655 20.35 17.7292ZM24.5167 17.7292C24.1921 18.2229 23.9264 18.7529 23.725 19.3083C23.5375 19.8207 23.4049 20.3514 23.3292 20.8917C23.3151 20.9911 23.2656 21.0821 23.1899 21.1479C23.1141 21.2137 23.0171 21.25 22.9167 21.25C22.8971 21.2506 22.8776 21.2492 22.8583 21.2458C22.7489 21.2304 22.6502 21.1721 22.5838 21.0838C22.5173 20.9955 22.4887 20.8844 22.5042 20.775C22.5888 20.1781 22.7354 19.5916 22.9417 19.025C23.0803 18.6442 23.246 18.2738 23.4375 17.9167H22.5C22.3895 17.9167 22.2835 17.8728 22.2054 17.7946C22.1272 17.7165 22.0833 17.6105 22.0833 17.5C22.0833 17.3895 22.1272 17.2835 22.2054 17.2054C22.2835 17.1272 22.3895 17.0833 22.5 17.0833H24.1667C24.2416 17.0834 24.3151 17.1035 24.3796 17.1416C24.4441 17.1797 24.4971 17.2344 24.5333 17.3C24.5687 17.3666 24.5858 17.4415 24.5829 17.5168C24.5799 17.5922 24.5571 17.6655 24.5167 17.7292ZM22.475 13.3958L21.75 15.4167H16.5667L15.8583 13.5333C15.8298 13.4534 15.8257 13.3667 15.8465 13.2844C15.8673 13.2021 15.912 13.1277 15.975 13.0708C16.0391 13.0157 16.1185 12.9814 16.2026 12.9725C16.2867 12.9635 16.3716 12.9804 16.4458 13.0208L17.775 13.7333L18.8042 11.8792C18.8414 11.8129 18.896 11.7581 18.9621 11.7207C19.0282 11.6832 19.1033 11.6646 19.1792 11.6667C19.2552 11.6689 19.3291 11.6917 19.3929 11.7329C19.4568 11.774 19.5083 11.8318 19.5417 11.9L20.4208 13.7167L21.8792 12.8917C21.9532 12.8502 22.0382 12.8323 22.1227 12.8404C22.2071 12.8486 22.2871 12.8823 22.3519 12.9371C22.4167 12.9919 22.4632 13.0653 22.4852 13.1472C22.5072 13.2292 22.5036 13.3159 22.475 13.3958Z" fill="#F0A837"/>
<path d="M27.9193 24.1667H26.2526C26.0225 24.1667 25.8359 24.3532 25.8359 24.5834V26.25C25.8359 26.4801 26.0225 26.6667 26.2526 26.6667H27.9193C28.1494 26.6667 28.3359 26.4801 28.3359 26.25V24.5834C28.3359 24.3532 28.1494 24.1667 27.9193 24.1667Z" fill="#F0A837"/>
<path d="M27.0859 12.9167C26.7544 12.9167 26.4365 13.0484 26.2021 13.2828C25.9676 13.5172 25.8359 13.8352 25.8359 14.1667V15C25.8359 15.3315 25.9676 15.6495 26.2021 15.8839C26.4365 16.1183 26.7544 16.25 27.0859 16.25C27.4175 16.25 27.7354 16.1183 27.9698 15.8839C28.2042 15.6495 28.3359 15.3315 28.3359 15V14.1667C28.3359 13.8352 28.2042 13.5172 27.9698 13.2828C27.7354 13.0484 27.4175 12.9167 27.0859 12.9167Z" fill="#F0A837"/>
<path d="M27.0859 25C26.9754 25 26.8695 24.9561 26.7913 24.878C26.7132 24.7998 26.6693 24.6939 26.6693 24.5834V15.8334C26.6693 15.7228 26.7132 15.6169 26.7913 15.5387C26.8695 15.4606 26.9754 15.4167 27.0859 15.4167C27.1964 15.4167 27.3024 15.4606 27.3806 15.5387C27.4587 15.6169 27.5026 15.7228 27.5026 15.8334V24.5834C27.5026 24.6939 27.4587 24.7998 27.3806 24.878C27.3024 24.9561 27.1964 25 27.0859 25ZM23.3359 25H15.0026C14.8921 25 14.7861 25.0439 14.708 25.1221C14.6298 25.2002 14.5859 25.3062 14.5859 25.4167C14.5859 25.5272 14.6298 25.6332 14.708 25.7113C14.7861 25.7895 14.8921 25.8334 15.0026 25.8334H23.3359C23.4464 25.8334 23.5524 25.7895 23.6306 25.7113C23.7087 25.6332 23.7526 25.5272 23.7526 25.4167C23.7526 25.3062 23.7087 25.2002 23.6306 25.1221C23.5524 25.0439 23.4464 25 23.3359 25Z" fill="#F0A837"/>
<path d="M25.418 22.5H12.918C12.5864 22.5 12.2685 22.6317 12.0341 22.8661C11.7997 23.1005 11.668 23.4185 11.668 23.75V27.0833C11.668 27.4149 11.7997 27.7328 12.0341 27.9672C12.2685 28.2016 12.5864 28.3333 12.918 28.3333H25.418C25.7495 28.3333 26.0674 28.2016 26.3019 27.9672C26.5363 27.7328 26.668 27.4149 26.668 27.0833V23.75C26.668 23.4185 26.5363 23.1005 26.3019 22.8661C26.0674 22.6317 25.7495 22.5 25.418 22.5ZM23.3346 26.6667H15.0013C14.6698 26.6667 14.3518 26.535 14.1174 26.3005C13.883 26.0661 13.7513 25.7482 13.7513 25.4167C13.7513 25.0851 13.883 24.7672 14.1174 24.5328C14.3518 24.2984 14.6698 24.1667 15.0013 24.1667H23.3346C23.6662 24.1667 23.9841 24.2984 24.2185 24.5328C24.4529 24.7672 24.5846 25.0851 24.5846 25.4167C24.5846 25.7482 24.4529 26.0661 24.2185 26.3005C23.9841 26.535 23.6662 26.6667 23.3346 26.6667Z" fill="#F0A837"/>
</svg>
