<svg width="40" height="40" viewBox="0 0 40 40" fill="none" xmlns="http://www.w3.org/2000/svg">
<circle cx="20" cy="20" r="20" fill="#F5F5F5"/>
<path d="M20 11.875C18.393 11.875 16.8221 12.3515 15.486 13.2443C14.1498 14.1371 13.1084 15.406 12.4935 16.8907C11.8785 18.3753 11.7176 20.009 12.0311 21.5851C12.3446 23.1612 13.1185 24.6089 14.2548 25.7452C15.3911 26.8815 16.8388 27.6554 18.4149 27.9689C19.991 28.2824 21.6247 28.1215 23.1093 27.5065C24.594 26.8916 25.8629 25.8502 26.7557 24.514C27.6485 23.1779 28.125 21.607 28.125 20C28.1228 17.8458 27.2661 15.7804 25.7428 14.2572C24.2196 12.7339 22.1542 11.8772 20 11.875ZM22.9417 22.9417C22.8245 23.0587 22.6656 23.1245 22.5 23.1245C22.3344 23.1245 22.1755 23.0587 22.0583 22.9417L19.5583 20.4417C19.4411 20.3246 19.3752 20.1657 19.375 20V15C19.375 14.8342 19.4409 14.6753 19.5581 14.5581C19.6753 14.4408 19.8342 14.375 20 14.375C20.1658 14.375 20.3247 14.4408 20.4419 14.5581C20.5592 14.6753 20.625 14.8342 20.625 15V19.7417L22.9417 22.0583C23.0587 22.1755 23.1245 22.3344 23.1245 22.5C23.1245 22.6656 23.0587 22.8245 22.9417 22.9417Z" fill="#F0A837"/>
</svg>
