<svg width="59" height="59" viewBox="0 0 59 59" fill="none" xmlns="http://www.w3.org/2000/svg">
<rect width="59" height="59" rx="8.42857" fill="#F0A837" fill-opacity="0.19"/>
<path d="M26.625 26.5H22.125C21.8598 26.5 21.6054 26.3946 21.4179 26.2071C21.2304 26.0196 21.125 25.7652 21.125 25.5V21C21.125 20.7348 21.2304 20.4804 21.4179 20.2929C21.6054 20.1054 21.8598 20 22.125 20C22.3902 20 22.6446 20.1054 22.8321 20.2929C23.0196 20.4804 23.125 20.7348 23.125 21V24.5H26.625C26.8902 24.5 27.1446 24.6054 27.3321 24.7929C27.5196 24.9804 27.625 25.2348 27.625 25.5C27.625 25.7652 27.5196 26.0196 27.3321 26.2071C27.1446 26.3946 26.8902 26.5 26.625 26.5Z" fill="#F0A837"/>
<path d="M39.0004 31.0001C38.7352 31.0001 38.4808 30.8947 38.2933 30.7072C38.1057 30.5197 38.0004 30.2653 38.0004 30.0001C38.0012 28.2396 37.4208 26.5281 36.3495 25.1312C35.2781 23.7343 33.7757 22.73 32.0752 22.2742C30.3748 21.8185 28.5715 21.9367 26.9451 22.6105C25.3187 23.2844 23.9602 24.4762 23.0804 26.0011C22.9475 26.2306 22.7289 26.398 22.4726 26.4664C22.2164 26.5347 21.9434 26.4985 21.7139 26.3656C21.4843 26.2327 21.317 26.0141 21.2486 25.7578C21.1803 25.5016 21.2165 25.2286 21.3494 24.9991C22.4496 23.0933 24.1481 21.6039 26.1812 20.762C28.2143 19.92 30.4685 19.7726 32.594 20.3425C34.7195 20.9124 36.5974 22.1678 37.9366 23.914C39.2757 25.6602 40.0012 27.7995 40.0004 30.0001C40.0004 30.2653 39.895 30.5197 39.7075 30.7072C39.52 30.8947 39.2656 31.0001 39.0004 31.0001ZM37.8754 40.0001C37.6102 40.0001 37.3558 39.8947 37.1683 39.7072C36.9807 39.5197 36.8754 39.2653 36.8754 39.0001V35.5001H33.3754C33.1102 35.5001 32.8558 35.3947 32.6683 35.2072C32.4807 35.0197 32.3754 34.7653 32.3754 34.5001C32.3754 34.2349 32.4807 33.9805 32.6683 33.793C32.8558 33.6055 33.1102 33.5001 33.3754 33.5001H37.8754C38.1406 33.5001 38.395 33.6055 38.5825 33.793C38.77 33.9805 38.8754 34.2349 38.8754 34.5001V39.0001C38.8754 39.2653 38.77 39.5197 38.5825 39.7072C38.395 39.8947 38.1406 40.0001 37.8754 40.0001Z" fill="#F0A837"/>
<path d="M30 40C27.3486 39.9974 24.8066 38.9429 22.9319 37.0681C21.0571 35.1934 20.0026 32.6514 20 30C20 29.7348 20.1054 29.4804 20.2929 29.2929C20.4804 29.1054 20.7348 29 21 29C21.2652 29 21.5196 29.1054 21.7071 29.2929C21.8946 29.4804 22 29.7348 22 30C21.9992 31.7605 22.5796 33.472 23.6509 34.8689C24.7223 36.2658 26.2247 37.2701 27.9252 37.7259C29.6256 38.1816 31.4289 38.0634 33.0553 37.3896C34.6817 36.7157 36.0402 35.5239 36.92 33.999C36.9858 33.8853 37.0733 33.7858 37.1776 33.7059C37.2819 33.6261 37.4009 33.5676 37.5278 33.5337C37.6547 33.4999 37.787 33.4914 37.9172 33.5087C38.0473 33.5259 38.1728 33.5687 38.2865 33.6345C38.4002 33.7003 38.4997 33.7878 38.5796 33.8921C38.6594 33.9964 38.7179 34.1154 38.7518 34.2423C38.7856 34.3692 38.7941 34.5015 38.7768 34.6317C38.7596 34.7618 38.7168 34.8873 38.651 35.001C37.7717 36.5176 36.5102 37.7773 34.9923 38.6544C33.4744 39.5315 31.7531 39.9955 30 40Z" fill="#F0A837"/>
</svg>
