<svg width="40" height="40" viewBox="0 0 40 40" fill="none" xmlns="http://www.w3.org/2000/svg">
<circle cx="20" cy="20" r="20" fill="#F5F5F5"/>
<path fill-rule="evenodd" clip-rule="evenodd" d="M15.0013 12.2917H14.168C13.3392 12.2917 12.5443 12.6209 11.9583 13.207C11.3722 13.793 11.043 14.5879 11.043 15.4167V25.4167C11.043 26.2455 11.3722 27.0403 11.9583 27.6264C12.5443 28.2124 13.3392 28.5417 14.168 28.5417H20.7313C20.5877 28.2601 20.5038 27.9519 20.485 27.6364C20.4662 27.3209 20.5129 27.0049 20.6221 26.7084C21.013 25.6463 21.7625 24.754 22.7413 24.1859C22.1561 23.5689 21.8286 22.7517 21.826 21.9014C21.8234 21.0511 22.1458 20.2319 22.7272 19.6114C23.3086 18.9909 24.1052 18.616 24.9539 18.5634C25.8026 18.5107 26.6394 18.7844 27.293 19.3284V15.4167C27.293 14.5879 26.9637 13.793 26.3777 13.207C25.7916 12.6209 24.9968 12.2917 24.168 12.2917H23.3346V14.1667C23.3346 14.3324 23.2688 14.4914 23.1516 14.6086C23.0344 14.7258 22.8754 14.7917 22.7096 14.7917C22.5439 14.7917 22.3849 14.7258 22.2677 14.6086C22.1505 14.4914 22.0846 14.3324 22.0846 14.1667V12.2917H16.2513V14.1667C16.2513 14.3324 16.1855 14.4914 16.0682 14.6086C15.951 14.7258 15.7921 14.7917 15.6263 14.7917C15.4605 14.7917 15.3016 14.7258 15.1844 14.6086C15.0672 14.4914 15.0013 14.3324 15.0013 14.1667V12.2917ZM15.0013 22.2917H19.168C19.3337 22.2917 19.4927 22.2258 19.6099 22.1086C19.7271 21.9914 19.793 21.8324 19.793 21.6667C19.793 21.5009 19.7271 21.342 19.6099 21.2247C19.4927 21.1075 19.3337 21.0417 19.168 21.0417H15.0013C14.8355 21.0417 14.6766 21.1075 14.5594 21.2247C14.4421 21.342 14.3763 21.5009 14.3763 21.6667C14.3763 21.8324 14.4421 21.9914 14.5594 22.1086C14.6766 22.2258 14.8355 22.2917 15.0013 22.2917ZM15.0013 18.9584H17.5846C17.7504 18.9584 17.9094 18.8925 18.0266 18.7753C18.1438 18.6581 18.2096 18.4991 18.2096 18.3334C18.2096 18.1676 18.1438 18.0086 18.0266 17.8914C17.9094 17.7742 17.7504 17.7084 17.5846 17.7084H15.0013C14.8355 17.7084 14.6766 17.7742 14.5594 17.8914C14.4421 18.0086 14.3763 18.1676 14.3763 18.3334C14.3763 18.4991 14.4421 18.6581 14.5594 18.7753C14.6766 18.8925 14.8355 18.9584 15.0013 18.9584Z" fill="#F0A837"/>
<path d="M25.1445 24.375C26.5252 24.375 27.6445 23.2557 27.6445 21.875C27.6445 20.4943 26.5252 19.375 25.1445 19.375C23.7638 19.375 22.6445 20.4943 22.6445 21.875C22.6445 23.2557 23.7638 24.375 25.1445 24.375Z" fill="#F0A837"/>
<path fill-rule="evenodd" clip-rule="evenodd" d="M22.7725 28.9584L27.5167 28.9475C27.7494 28.9466 27.9785 28.8896 28.1845 28.7813C28.3906 28.673 28.5674 28.5167 28.7002 28.3255C28.8329 28.1343 28.9175 27.9139 28.947 27.683C28.9764 27.4521 28.9497 27.2176 28.8692 26.9992C28.5939 26.231 28.0881 25.5667 27.4209 25.097C26.7537 24.6272 25.9576 24.3751 25.1417 24.375C24.3252 24.3767 23.5289 24.6289 22.8604 25.0976C22.1919 25.5663 21.6833 26.2289 21.4033 26.9959C21.3221 27.2164 21.2953 27.4532 21.3254 27.6863C21.3554 27.9194 21.4413 28.1417 21.5757 28.3344C21.7102 28.5272 21.8892 28.6845 22.0976 28.7932C22.306 28.9018 22.5375 28.9585 22.7725 28.9584ZM15 12.2917H16.25V11.6667C16.25 11.5009 16.1842 11.342 16.0669 11.2247C15.9497 11.1075 15.7908 11.0417 15.625 11.0417C15.4592 11.0417 15.3003 11.1075 15.1831 11.2247C15.0658 11.342 15 11.5009 15 11.6667V12.2917ZM22.0833 12.2917H23.3333V11.6667C23.3333 11.5009 23.2675 11.342 23.1503 11.2247C23.0331 11.1075 22.8741 11.0417 22.7083 11.0417C22.5426 11.0417 22.3836 11.1075 22.2664 11.2247C22.1492 11.342 22.0833 11.5009 22.0833 11.6667V12.2917Z" fill="#F0A837"/>
</svg>
