<svg width="59" height="59" viewBox="0 0 59 59" fill="none" xmlns="http://www.w3.org/2000/svg">
<rect width="59" height="59" rx="8.42857" fill="#F0A837" fill-opacity="0.19"/>
<path d="M24.5 39H21C20.45 39 20 38.55 20 38V28C20 27.45 20.45 27 21 27H24.5C25.05 27 25.5 27.45 25.5 28V38C25.5 38.55 25.05 39 24.5 39ZM31.75 21H28.25C27.7 21 27.25 21.45 27.25 22V38C27.25 38.55 27.7 39 28.25 39H31.75C32.3 39 32.75 38.55 32.75 38V22C32.75 21.45 32.3 21 31.75 21ZM39 29H35.5C34.95 29 34.5 29.45 34.5 30V38C34.5 38.55 34.95 39 35.5 39H39C39.55 39 40 38.55 40 38V30C40 29.45 39.55 29 39 29Z" fill="#F0A837"/>
</svg>
