<svg width="75" height="75" viewBox="0 0 75 75" fill="none" xmlns="http://www.w3.org/2000/svg">
<g filter="url(#filter0_d_1143_2158)">
<path d="M6 8.33068C6 4.28206 9.28206 1 13.3307 1H61.3438C65.3924 1 68.6745 4.28206 68.6745 8.33068V56.3438C68.6745 60.3924 65.3924 63.6745 61.3438 63.6745H13.3307C9.28206 63.6745 6 60.3924 6 56.3438V8.33068Z" fill="#F0A837" fill-opacity="0.1" shape-rendering="crispEdges"/>
<path d="M13.3311 1.58691H61.3438C65.0681 1.58691 68.0869 4.60672 68.0869 8.33105V56.3438C68.0869 60.0681 65.0681 63.0869 61.3438 63.0869H13.3311C9.60672 63.0869 6.58691 60.0681 6.58691 56.3438V8.33105C6.58691 4.60672 9.60672 1.58691 13.3311 1.58691Z" stroke="black" stroke-opacity="0.07" stroke-width="1.17434" shape-rendering="crispEdges"/>
<g clip-path="url(#clip0_1143_2158)">
<path fill-rule="evenodd" clip-rule="evenodd" d="M30.1858 42.4831H20.611C18.9621 42.4831 17.6274 41.1479 17.6274 39.5014V20.0405C17.6274 18.3917 18.9622 17.0569 20.611 17.0569H42.1678C42.7896 16.5676 43.5724 16.2749 44.4202 16.2749H45.5177C45.8095 14.2129 47.5818 12.6274 49.7238 12.6274C51.9323 12.6274 53.7477 14.3113 53.9533 16.4797C55.3605 16.9997 56.3725 18.3518 56.3725 19.929C56.3725 21.9387 54.7289 23.5831 52.7193 23.5831H52.6278V39.5014C52.6278 40.9779 51.5545 42.2038 50.1456 42.4414V42.4729C50.1456 42.5485 50.13 42.6232 50.0998 42.6925L48.4842 46.396C48.4421 46.4926 48.3732 46.575 48.2855 46.6334C48.1979 46.6919 48.0953 46.7238 47.9899 46.7255C47.8846 46.7273 47.781 46.6986 47.6915 46.6431C47.602 46.5875 47.5304 46.5074 47.4852 46.4122L45.7242 42.7088C45.6905 42.6382 45.6724 42.5612 45.6711 42.4831H39.9957C40.0383 44.2492 40.4829 46.1183 41.0354 47.3114H43.0531C44.17 47.3114 45.0838 48.2251 45.0838 49.342C45.0838 50.4587 44.17 51.3725 43.0531 51.3725H27.2041C26.0873 51.3725 25.1736 50.4587 25.1736 49.342C25.1736 48.2251 26.0873 47.3114 27.2041 47.3114H29.2162C29.7546 46.1175 30.1604 44.2485 30.1858 42.4831ZM41.2288 18.155H20.611C19.569 18.155 18.7255 18.9985 18.7255 20.0405V36.5438H45.6711L45.6712 29.2709C45.6708 28.0407 46.6776 27.0334 47.9085 27.034C49.1385 27.0337 50.1456 28.0404 50.1451 29.2711V29.2714L50.1454 36.5438H51.5298V23.5831H44.4202C42.4106 23.5831 40.766 21.9386 40.766 19.929C40.7656 19.3078 40.9249 18.6969 41.2288 18.155ZM18.7255 37.6418V39.5014C18.7255 40.5417 19.5692 41.385 20.611 41.385H45.671L45.6711 37.6418H18.7255ZM50.1456 41.318C50.9434 41.0992 51.5298 40.3687 51.5298 39.5014V37.6418H50.1454L50.1456 41.318ZM47.0758 42.9943L47.9594 44.8527L48.7702 42.9943L47.0758 42.9943ZM39.8438 47.3114C39.3317 46.0079 38.9374 44.2003 38.8977 42.4831H31.2836C31.2591 44.2009 30.8971 46.0085 30.4023 47.3114H39.8438ZM29.553 48.4094H27.2041C26.6912 48.4094 26.2716 48.829 26.2716 49.342C26.2716 49.8548 26.6912 50.2745 27.2041 50.2745H43.0531C43.566 50.2745 43.9857 49.8548 43.9857 49.342C43.9857 48.829 43.566 48.4094 43.0531 48.4094H29.553ZM49.0475 41.8962L49.0471 31.1711L46.7693 31.1711L46.769 41.8963L49.0475 41.8962ZM49.0471 30.0731V29.2708C49.0474 28.6443 48.5347 28.1318 47.9085 28.1321H47.9081C47.2816 28.1317 46.7691 28.6444 46.7693 29.2706V30.073L49.0471 30.0731ZM33.7892 40.0624C33.4862 40.0624 33.2401 39.8164 33.2401 39.5134C33.2401 39.2104 33.4862 38.9644 33.7892 38.9644H36.466C36.7691 38.9644 37.0151 39.2104 37.0151 39.5134C37.0151 39.8164 36.7691 40.0624 36.466 40.0624H33.7892ZM52.8746 16.8907C52.8746 15.1375 51.4647 13.7255 49.7238 13.7255C47.9991 13.7255 46.5973 15.1117 46.574 16.8314C46.572 16.9757 46.5133 17.1134 46.4106 17.2147C46.3078 17.3161 46.1693 17.3729 46.025 17.3729H44.4202C43.0145 17.3729 41.8641 18.5233 41.8641 19.929C41.8641 21.3347 43.0145 22.4851 44.4202 22.4851H52.7193C54.1249 22.4851 55.2745 21.3347 55.2745 19.929C55.2745 18.7197 54.4238 17.7011 53.2929 17.424C53.1736 17.3948 53.0675 17.3263 52.9916 17.2296C52.9158 17.133 52.8746 17.0136 52.8746 16.8907ZM29.608 20.6476V25.9132C29.608 26.0588 29.5501 26.1984 29.4472 26.3014C29.3442 26.4043 29.2046 26.4622 29.059 26.4622H21.2841C21.1385 26.4622 20.9989 26.4043 20.8959 26.3014C20.793 26.1984 20.7351 26.0588 20.7351 25.9132V20.6476C20.7351 20.502 20.793 20.3623 20.8959 20.2594C20.9989 20.1564 21.1385 20.0986 21.2841 20.0986H29.059C29.2046 20.0986 29.3442 20.1564 29.4472 20.2594C29.5501 20.3623 29.608 20.502 29.608 20.6476ZM28.51 21.1966H21.8332V25.3641H28.51V21.1966ZM27.0263 21.5336C27.1393 21.4418 27.2842 21.3987 27.429 21.4137C27.5738 21.4287 27.7067 21.5006 27.7986 21.6136C27.8903 21.7266 27.9334 21.8715 27.9184 22.0163C27.9034 22.1611 27.8315 22.294 27.7185 22.3859L24.4663 25.0272C24.4071 25.0753 24.3385 25.1106 24.2649 25.1307C24.1912 25.1509 24.1143 25.1554 24.0388 25.1441C23.9633 25.1328 23.891 25.1059 23.8266 25.0651C23.7621 25.0243 23.7068 24.9705 23.6643 24.9071L22.515 23.1954C22.4339 23.0745 22.4041 22.9263 22.4322 22.7834C22.4602 22.6406 22.5439 22.5147 22.6647 22.4335C22.7856 22.3524 22.9338 22.3226 23.0766 22.3507C23.2195 22.3787 23.3454 22.4624 23.4266 22.5832L24.2408 23.7958L27.0263 21.5336ZM29.608 28.7856V34.0511C29.608 34.1967 29.5501 34.3364 29.4472 34.4393C29.3442 34.5423 29.2046 34.6002 29.059 34.6002H21.2841C21.1385 34.6002 20.9989 34.5423 20.8959 34.4393C20.793 34.3364 20.7351 34.1967 20.7351 34.0511V28.7856C20.7351 28.64 20.793 28.5004 20.8959 28.3974C20.9989 28.2945 21.1385 28.2366 21.2841 28.2366H29.059C29.2046 28.2366 29.3442 28.2945 29.4472 28.3974C29.5501 28.5004 29.608 28.64 29.608 28.7856ZM28.51 29.3347H21.8332V33.5021H28.51V29.3347ZM27.0263 29.6715C27.1393 29.5798 27.2842 29.5367 27.429 29.5517C27.5738 29.5667 27.7068 29.6386 27.7986 29.7516C27.8903 29.8647 27.9334 30.0095 27.9184 30.1543C27.9033 30.2991 27.8315 30.432 27.7185 30.5238L24.4663 33.1652C24.407 33.2133 24.3384 33.2485 24.2648 33.2686C24.1912 33.2887 24.1142 33.2933 24.0388 33.282C23.9633 33.2707 23.8911 33.2438 23.8266 33.203C23.7621 33.1622 23.7068 33.1084 23.6643 33.0451L22.515 31.3333C22.4339 31.2124 22.4041 31.0643 22.4322 30.9214C22.4602 30.7785 22.5439 30.6527 22.6647 30.5714C22.7856 30.4904 22.9338 30.4606 23.0766 30.4887C23.2195 30.5168 23.3454 30.6004 23.4266 30.7212L24.2408 31.9338L27.0263 29.6715ZM31.4119 22.2586C31.1089 22.2586 30.8629 22.0126 30.8629 21.7096C30.8629 21.4066 31.1089 21.1605 31.4119 21.1605H39.5625C39.8655 21.1605 40.1115 21.4066 40.1115 21.7096C40.1115 22.0126 39.8655 22.2586 39.5625 22.2586H31.4119ZM31.4119 30.6097C31.1089 30.6097 30.8629 30.3637 30.8629 30.0607C30.8629 29.7577 31.1089 29.5117 31.4119 29.5117H44.2684C44.5714 29.5117 44.8174 29.7577 44.8174 30.0607C44.8174 30.3637 44.5714 30.6097 44.2684 30.6097H31.4119ZM31.4119 33.3251C31.1089 33.3251 30.8629 33.0791 30.8629 32.7761C30.8629 32.473 31.1089 32.2271 31.4119 32.2271H44.2684C44.5714 32.2271 44.8174 32.473 44.8174 32.7761C44.8174 33.0791 44.5714 33.3251 44.2684 33.3251H31.4119ZM31.4119 24.974C31.1089 24.974 30.8629 24.7279 30.8629 24.4249C30.8629 24.122 31.1089 23.8759 31.4119 23.8759H41.1311C41.4341 23.8759 41.6802 24.122 41.6802 24.4249C41.6802 24.7279 41.4341 24.974 41.1311 24.974H31.4119Z" fill="#F0A837"/>
</g>
</g>
<defs>
<filter id="filter0_d_1143_2158" x="0.302638" y="0" width="74.0693" height="74.0692" filterUnits="userSpaceOnUse" color-interpolation-filters="sRGB">
<feFlood flood-opacity="0" result="BackgroundImageFix"/>
<feColorMatrix in="SourceAlpha" type="matrix" values="0 0 0 0 0 0 0 0 0 0 0 0 0 0 0 0 0 0 127 0" result="hardAlpha"/>
<feMorphology radius="1" operator="dilate" in="SourceAlpha" result="effect1_dropShadow_1143_2158"/>
<feOffset dy="4.69736"/>
<feGaussianBlur stdDeviation="2.34868"/>
<feComposite in2="hardAlpha" operator="out"/>
<feColorMatrix type="matrix" values="0 0 0 0 0 0 0 0 0 0 0 0 0 0 0 0 0 0 0.05 0"/>
<feBlend mode="normal" in2="BackgroundImageFix" result="effect1_dropShadow_1143_2158"/>
<feBlend mode="normal" in="SourceGraphic" in2="effect1_dropShadow_1143_2158" result="shape"/>
</filter>
<clipPath id="clip0_1143_2158">
<rect width="40" height="40" fill="white" transform="translate(17 12)"/>
</clipPath>
</defs>
</svg>
