<svg width="75" height="75" viewBox="0 0 75 75" fill="none" xmlns="http://www.w3.org/2000/svg">
<g filter="url(#filter0_d_1143_2169)">
<path d="M6 8.33068C6 4.28206 9.28206 1 13.3307 1H61.3438C65.3924 1 68.6745 4.28206 68.6745 8.33068V56.3438C68.6745 60.3924 65.3924 63.6745 61.3438 63.6745H13.3307C9.28206 63.6745 6 60.3924 6 56.3438V8.33068Z" fill="#F0A837" fill-opacity="0.1" shape-rendering="crispEdges"/>
<path d="M13.3311 1.58691H61.3438C65.0681 1.58691 68.0869 4.60672 68.0869 8.33105V56.3438C68.0869 60.0681 65.0681 63.0869 61.3438 63.0869H13.3311C9.60672 63.0869 6.58691 60.0681 6.58691 56.3438V8.33105C6.58691 4.60672 9.60672 1.58691 13.3311 1.58691Z" stroke="black" stroke-opacity="0.07" stroke-width="1.17434" shape-rendering="crispEdges"/>
<g clip-path="url(#clip0_1143_2169)">
<path d="M31.375 17.375C31.375 17.0766 31.2565 16.7905 31.0455 16.5795C30.8345 16.3685 30.5484 16.25 30.25 16.25C29.9516 16.25 29.6655 16.3685 29.4545 16.5795C29.2435 16.7905 29.125 17.0766 29.125 17.375V18.5H24.625C23.7299 18.5 22.8714 18.8556 22.2385 19.4885C21.6056 20.1214 21.25 20.9799 21.25 21.875V28.625C21.25 29.5201 21.6056 30.3786 22.2385 31.0115C22.8714 31.6444 23.7299 32 24.625 32H30.448C30.544 31.742 30.673 31.4983 30.835 31.2688C31.2175 30.7288 31.7575 30.3237 32.3875 30.0965L33.4675 29.75H24.625C24.3266 29.75 24.0405 29.6315 23.8295 29.4205C23.6185 29.2095 23.5 28.9234 23.5 28.625V21.875C23.5 21.5766 23.6185 21.2905 23.8295 21.0795C24.0405 20.8685 24.3266 20.75 24.625 20.75H35.875C36.1734 20.75 36.4595 20.8685 36.6705 21.0795C36.8815 21.2905 37 21.5766 37 21.875V26.0982L37.2993 25.1825C37.5468 24.5075 37.9517 23.9675 38.4918 23.585C38.7302 23.414 38.983 23.2813 39.25 23.1868V21.875C39.25 20.9799 38.8944 20.1214 38.2615 19.4885C37.6286 18.8556 36.7701 18.5 35.875 18.5H31.375V17.375ZM22.375 35.375H31.1793C31.5296 35.732 31.96 36.0004 32.4348 36.158L34.8197 36.9455C35.1595 37.0602 35.4745 37.2403 35.8795 37.6003L35.902 37.625H22.375C22.0766 37.625 21.7905 37.7435 21.5795 37.9545C21.3685 38.1655 21.25 38.4516 21.25 38.75V39.5375C21.25 41.6638 22.168 43.0812 23.6845 44.024C25.2685 45.0095 27.5612 45.5 30.25 45.5C32.9567 45.5 35.2495 45.0072 36.8268 44.024C37.4613 43.6302 37.99 43.151 38.3905 42.5705L38.5143 42.6717C38.8293 42.8967 39.1667 43.0543 39.5268 43.1443C39.2666 43.704 39.1902 44.3317 39.3085 44.9375C38.9137 45.3136 38.4808 45.6476 38.017 45.9342C35.938 47.2325 33.1683 47.75 30.25 47.75C27.3475 47.75 24.5777 47.228 22.4965 45.9342C20.3477 44.6 19 42.4738 19 39.5375V38.75C19 37.8549 19.3556 36.9964 19.9885 36.3635C20.6214 35.7306 21.4799 35.375 22.375 35.375ZM28.5625 25.25C28.5625 25.6976 28.3847 26.1268 28.0682 26.4432C27.7518 26.7597 27.3226 26.9375 26.875 26.9375C26.4274 26.9375 25.9982 26.7597 25.6818 26.4432C25.3653 26.1268 25.1875 25.6976 25.1875 25.25C25.1875 24.8024 25.3653 24.3732 25.6818 24.0568C25.9982 23.7403 26.4274 23.5625 26.875 23.5625C27.3226 23.5625 27.7518 23.7403 28.0682 24.0568C28.3847 24.3732 28.5625 24.8024 28.5625 25.25ZM33.625 26.9375C34.0726 26.9375 34.5018 26.7597 34.8182 26.4432C35.1347 26.1268 35.3125 25.6976 35.3125 25.25C35.3125 24.8024 35.1347 24.3732 34.8182 24.0568C34.5018 23.7403 34.0726 23.5625 33.625 23.5625C33.1774 23.5625 32.7482 23.7403 32.4318 24.0568C32.1153 24.3732 31.9375 24.8024 31.9375 25.25C31.9375 25.6976 32.1153 26.1268 32.4318 26.4432C32.7482 26.7597 33.1774 26.9375 33.625 26.9375ZM41.2255 25.8845L42.0085 28.2943C42.2513 29.0272 42.6622 29.6932 43.2084 30.239C43.7546 30.7848 44.4209 31.1952 45.154 31.4375L47.566 32.2205L47.6133 32.234C47.7991 32.2994 47.9601 32.4209 48.0739 32.5817C48.1878 32.7425 48.249 32.9347 48.249 33.1318C48.249 33.3288 48.1878 33.521 48.0739 33.6818C47.9601 33.8426 47.7991 33.9641 47.6133 34.0295L45.2035 34.8125C44.47 35.0545 43.8032 35.4648 43.2566 36.0106C42.7101 36.5564 42.2988 37.2226 42.0557 37.9558L41.2728 40.3633C41.2073 40.5491 41.0858 40.7101 40.925 40.8239C40.7642 40.9378 40.572 40.999 40.375 40.999C40.178 40.999 39.9858 40.9378 39.825 40.8239C39.6642 40.7101 39.5427 40.5491 39.4772 40.3633L38.6943 37.9558C38.4129 37.1033 37.905 36.3435 37.225 35.7575C36.7333 35.3305 36.1621 35.0048 35.5442 34.799L33.1322 34.016C32.9464 33.9506 32.7854 33.8291 32.6716 33.6683C32.5577 33.5075 32.4965 33.3153 32.4965 33.1182C32.4965 32.9212 32.5577 32.729 32.6716 32.5682C32.7854 32.4074 32.9464 32.2859 33.1322 32.2205L35.5442 31.4375C36.2686 31.189 36.9255 30.7757 37.4631 30.2303C38.0007 29.6849 38.4044 29.0221 38.6425 28.2943L39.4255 25.8868C39.4905 25.7001 39.6119 25.5383 39.773 25.4238C39.934 25.3093 40.1268 25.2478 40.3244 25.2478C40.522 25.2478 40.7147 25.3093 40.8758 25.4238C41.0369 25.5383 41.1583 25.7001 41.2232 25.8868M52.2595 43.7315L50.5382 43.1735C50.0147 42.9995 49.5388 42.706 49.1483 42.3162C48.7578 41.9265 48.4633 41.4512 48.2882 40.928L47.7302 39.2068C47.6837 39.0738 47.5969 38.9587 47.4821 38.8772C47.3672 38.7958 47.2298 38.752 47.089 38.752C46.9482 38.752 46.8108 38.7958 46.6959 38.8772C46.5811 38.9587 46.4943 39.0738 46.4478 39.2068L45.8853 40.928C45.714 41.4471 45.4254 41.9198 45.0418 42.3093C44.6582 42.6987 44.19 42.9945 43.6735 43.1735L41.9523 43.7315C41.8532 43.7668 41.7636 43.8245 41.6906 43.9001C41.6176 43.9758 41.563 44.0673 41.5312 44.1675C41.4994 44.2677 41.4912 44.3739 41.5072 44.4778C41.5233 44.5818 41.5632 44.6806 41.6238 44.7665C41.7048 44.879 41.8195 44.969 41.9523 45.014L43.6735 45.5742C44.198 45.7492 44.6745 46.044 45.0651 46.4354C45.4557 46.8268 45.7496 47.3039 45.9235 47.8288L46.4815 49.5477C46.5281 49.6807 46.6148 49.7958 46.7297 49.8773C46.8446 49.9587 46.9819 50.0025 47.1227 50.0025C47.2636 50.0025 47.4009 49.9587 47.5158 49.8773C47.6307 49.7958 47.7174 49.6807 47.764 49.5477L48.3242 47.8288C48.4988 47.3054 48.7928 46.8298 49.1829 46.4396C49.573 46.0495 50.0486 45.7555 50.572 45.581L52.2933 45.023C52.4262 44.9764 52.5413 44.8897 52.6228 44.7748C52.7042 44.6599 52.748 44.5226 52.748 44.3818C52.748 44.2409 52.7042 44.1036 52.6228 43.9887C52.5413 43.8738 52.4262 43.7871 52.2933 43.7405L52.2595 43.7315Z" fill="#F0A837"/>
</g>
</g>
<defs>
<filter id="filter0_d_1143_2169" x="0.302638" y="0" width="74.069" height="74.0692" filterUnits="userSpaceOnUse" color-interpolation-filters="sRGB">
<feFlood flood-opacity="0" result="BackgroundImageFix"/>
<feColorMatrix in="SourceAlpha" type="matrix" values="0 0 0 0 0 0 0 0 0 0 0 0 0 0 0 0 0 0 127 0" result="hardAlpha"/>
<feMorphology radius="1" operator="dilate" in="SourceAlpha" result="effect1_dropShadow_1143_2169"/>
<feOffset dy="4.69736"/>
<feGaussianBlur stdDeviation="2.34868"/>
<feComposite in2="hardAlpha" operator="out"/>
<feColorMatrix type="matrix" values="0 0 0 0 0 0 0 0 0 0 0 0 0 0 0 0 0 0 0.05 0"/>
<feBlend mode="normal" in2="BackgroundImageFix" result="effect1_dropShadow_1143_2169"/>
<feBlend mode="normal" in="SourceGraphic" in2="effect1_dropShadow_1143_2169" result="shape"/>
</filter>
<clipPath id="clip0_1143_2169">
<rect width="36" height="36" fill="white" transform="translate(16.75 14)"/>
</clipPath>
</defs>
</svg>
