<svg width="75" height="75" viewBox="0 0 75 75" fill="none" xmlns="http://www.w3.org/2000/svg">
<g filter="url(#filter0_d_1143_2178)">
<path d="M6 8.33068C6 4.28206 9.28206 1 13.3307 1H61.3438C65.3924 1 68.6745 4.28206 68.6745 8.33068V56.3438C68.6745 60.3924 65.3924 63.6745 61.3438 63.6745H13.3307C9.28206 63.6745 6 60.3924 6 56.3438V8.33068Z" fill="#F0A837" fill-opacity="0.1" shape-rendering="crispEdges"/>
<path d="M13.3311 1.58691H61.3438C65.0681 1.58691 68.0869 4.60672 68.0869 8.33105V56.3438C68.0869 60.0681 65.0681 63.0869 61.3438 63.0869H13.3311C9.60672 63.0869 6.58691 60.0681 6.58691 56.3438V8.33105C6.58691 4.60672 9.60672 1.58691 13.3311 1.58691Z" stroke="black" stroke-opacity="0.07" stroke-width="1.17434" shape-rendering="crispEdges"/>
<path d="M40.63 28.2767C43.667 27.5996 46.4538 26.0858 48.675 23.9067V18.6717H25.3416V23.9067C27.5628 26.0858 30.3496 27.5996 33.3866 28.2767C33.7505 27.637 34.2773 27.1052 34.9135 26.7352C35.5496 26.3652 36.2724 26.1703 37.0083 26.1703C37.7442 26.1703 38.467 26.3652 39.1031 26.7352C39.7393 27.1052 40.2661 27.637 40.63 28.2767ZM40.9766 31.61C40.7066 32.4502 40.1768 33.1829 39.4637 33.7028C38.7505 34.2226 37.8908 34.5027 37.0083 34.5027C36.1258 34.5027 35.2661 34.2226 34.5529 33.7028C33.8398 33.1829 33.31 32.4502 33.04 31.61C30.2629 31.0532 27.6374 29.9081 25.34 28.2517V45.3384H48.6733V28.25C46.377 29.9066 43.7526 31.0523 40.9766 31.61ZM23.675 15.34H50.3416C50.7837 15.34 51.2076 15.5156 51.5201 15.8282C51.8327 16.1407 52.0083 16.5647 52.0083 17.0067V47.0067C52.0083 47.4487 51.8327 47.8726 51.5201 48.1852C51.2076 48.4978 50.7837 48.6734 50.3416 48.6734H23.675C23.2329 48.6734 22.809 48.4978 22.4965 48.1852C22.1839 47.8726 22.0083 47.4487 22.0083 47.0067V17.0067C22.0083 16.5647 22.1839 16.1407 22.4965 15.8282C22.809 15.5156 23.2329 15.34 23.675 15.34Z" fill="#F0A837"/>
</g>
<defs>
<filter id="filter0_d_1143_2178" x="0.302638" y="0" width="74.069" height="74.0692" filterUnits="userSpaceOnUse" color-interpolation-filters="sRGB">
<feFlood flood-opacity="0" result="BackgroundImageFix"/>
<feColorMatrix in="SourceAlpha" type="matrix" values="0 0 0 0 0 0 0 0 0 0 0 0 0 0 0 0 0 0 127 0" result="hardAlpha"/>
<feMorphology radius="1" operator="dilate" in="SourceAlpha" result="effect1_dropShadow_1143_2178"/>
<feOffset dy="4.69736"/>
<feGaussianBlur stdDeviation="2.34868"/>
<feComposite in2="hardAlpha" operator="out"/>
<feColorMatrix type="matrix" values="0 0 0 0 0 0 0 0 0 0 0 0 0 0 0 0 0 0 0.05 0"/>
<feBlend mode="normal" in2="BackgroundImageFix" result="effect1_dropShadow_1143_2178"/>
<feBlend mode="normal" in="SourceGraphic" in2="effect1_dropShadow_1143_2178" result="shape"/>
</filter>
</defs>
</svg>
