<svg width="75" height="75" viewBox="0 0 75 75" fill="none" xmlns="http://www.w3.org/2000/svg">
<g filter="url(#filter0_d_1143_2210)">
<path d="M6 8.33068C6 4.28206 9.28206 1 13.3307 1H61.3438C65.3924 1 68.6745 4.28206 68.6745 8.33068V56.3438C68.6745 60.3924 65.3924 63.6745 61.3438 63.6745H13.3307C9.28206 63.6745 6 60.3924 6 56.3438V8.33068Z" fill="#F0A837" fill-opacity="0.1" shape-rendering="crispEdges"/>
<path d="M13.3311 1.58691H61.3438C65.0681 1.58691 68.0869 4.60672 68.0869 8.33105V56.3438C68.0869 60.0681 65.0681 63.0869 61.3438 63.0869H13.3311C9.60672 63.0869 6.58691 60.0681 6.58691 56.3438V8.33105C6.58691 4.60672 9.60672 1.58691 13.3311 1.58691Z" stroke="black" stroke-opacity="0.07" stroke-width="1.17434" shape-rendering="crispEdges"/>
<path d="M37 49.4945C37 49.4945 51.9977 44.4952 51.9977 31.9972" stroke="#F0A837" stroke-width="2.5" stroke-linecap="round" stroke-linejoin="round"/>
<path d="M51.9977 31.9972V16.9996C51.9977 16.9996 46.9984 14.4999 37 14.4999" stroke="#F0A837" stroke-width="2.5" stroke-linecap="round" stroke-linejoin="round"/>
<path d="M37.0001 49.4945C37.0001 49.4945 22.0024 44.4952 22.0024 31.9972" stroke="#F0A837" stroke-width="2.5" stroke-linecap="round" stroke-linejoin="round"/>
<path d="M22.0024 31.9972V16.9995C22.0024 16.9995 27.0017 14.4999 37.0001 14.4999" stroke="#F0A837" stroke-width="2.5" stroke-linecap="round" stroke-linejoin="round"/>
<path d="M46.9987 21.9988C37.0003 29.4976 34.5007 39.4961 34.5007 39.4961C34.5007 39.4961 32.0011 36.5125 29.5015 34.4968" stroke="#F0A837" stroke-width="2.5" stroke-linecap="round" stroke-linejoin="round"/>
<path d="M37 38.9978C37 38.9978 42.9991 36.9981 42.9991 31.9989" stroke="black" stroke-linecap="round" stroke-linejoin="round"/>
<path d="M42.9991 31.9989V25.9998C42.9991 25.9998 40.9994 25 37 25" stroke="black" stroke-linecap="round" stroke-linejoin="round"/>
<path d="M37 38.9978C37 38.9978 31.001 36.9981 31.001 31.9989" stroke="black" stroke-linecap="round" stroke-linejoin="round"/>
<path d="M31.001 31.9989V25.9998C31.001 25.9998 33.0007 25 37 25" stroke="black" stroke-linecap="round" stroke-linejoin="round"/>
<path d="M40.9994 27.9995C37 30.999 36.0002 34.9984 36.0002 34.9984C36.0002 34.9984 35.0003 33.805 34.0005 32.9987" stroke="black" stroke-linecap="round" stroke-linejoin="round"/>
</g>
<defs>
<filter id="filter0_d_1143_2210" x="0.302638" y="0" width="74.069" height="74.0692" filterUnits="userSpaceOnUse" color-interpolation-filters="sRGB">
<feFlood flood-opacity="0" result="BackgroundImageFix"/>
<feColorMatrix in="SourceAlpha" type="matrix" values="0 0 0 0 0 0 0 0 0 0 0 0 0 0 0 0 0 0 127 0" result="hardAlpha"/>
<feMorphology radius="1" operator="dilate" in="SourceAlpha" result="effect1_dropShadow_1143_2210"/>
<feOffset dy="4.69736"/>
<feGaussianBlur stdDeviation="2.34868"/>
<feComposite in2="hardAlpha" operator="out"/>
<feColorMatrix type="matrix" values="0 0 0 0 0 0 0 0 0 0 0 0 0 0 0 0 0 0 0.05 0"/>
<feBlend mode="normal" in2="BackgroundImageFix" result="effect1_dropShadow_1143_2210"/>
<feBlend mode="normal" in="SourceGraphic" in2="effect1_dropShadow_1143_2210" result="shape"/>
</filter>
</defs>
</svg>
