<svg width="75" height="75" viewBox="0 0 75 75" fill="none" xmlns="http://www.w3.org/2000/svg">
<g filter="url(#filter0_d_1143_2188)">
<path d="M6 8.33068C6 4.28206 9.28206 1 13.3307 1H61.3438C65.3924 1 68.6745 4.28206 68.6745 8.33068V56.3438C68.6745 60.3924 65.3924 63.6745 61.3438 63.6745H13.3307C9.28206 63.6745 6 60.3924 6 56.3438V8.33068Z" fill="#F0A837" fill-opacity="0.1" shape-rendering="crispEdges"/>
<path d="M13.3311 1.58691H61.3438C65.0681 1.58691 68.0869 4.60672 68.0869 8.33105V56.3438C68.0869 60.0681 65.0681 63.0869 61.3438 63.0869H13.3311C9.60672 63.0869 6.58691 60.0681 6.58691 56.3438V8.33105C6.58691 4.60672 9.60672 1.58691 13.3311 1.58691Z" stroke="black" stroke-opacity="0.07" stroke-width="1.17434" shape-rendering="crispEdges"/>
<path d="M32.0002 45.3333H27.0002C25.2321 45.3333 23.5364 44.6309 22.2861 43.3807C21.0359 42.1304 20.3335 40.4348 20.3335 38.6666V23.6666C20.3335 21.8985 21.0359 20.2028 22.2861 18.9526C23.5364 17.7024 25.2321 17 27.0002 17H45.3335C47.1016 17 48.7973 17.7024 50.0475 18.9526C51.2978 20.2028 52.0002 21.8985 52.0002 23.6666V28.6666M30.3335 15.3333V18.6666M42.0002 15.3333V18.6666M20.3335 25.3333H52.0002M47.8335 38.0716L45.3335 40.5716" stroke="#F0A837" stroke-width="3.33333" stroke-linecap="round" stroke-linejoin="round"/>
<path d="M45.3333 48.6667C49.9357 48.6667 53.6667 44.9357 53.6667 40.3333C53.6667 35.731 49.9357 32 45.3333 32C40.731 32 37 35.731 37 40.3333C37 44.9357 40.731 48.6667 45.3333 48.6667Z" stroke="#F0A837" stroke-width="3.33333" stroke-linecap="round" stroke-linejoin="round"/>
</g>
<defs>
<filter id="filter0_d_1143_2188" x="0.302638" y="0" width="74.069" height="74.0692" filterUnits="userSpaceOnUse" color-interpolation-filters="sRGB">
<feFlood flood-opacity="0" result="BackgroundImageFix"/>
<feColorMatrix in="SourceAlpha" type="matrix" values="0 0 0 0 0 0 0 0 0 0 0 0 0 0 0 0 0 0 127 0" result="hardAlpha"/>
<feMorphology radius="1" operator="dilate" in="SourceAlpha" result="effect1_dropShadow_1143_2188"/>
<feOffset dy="4.69736"/>
<feGaussianBlur stdDeviation="2.34868"/>
<feComposite in2="hardAlpha" operator="out"/>
<feColorMatrix type="matrix" values="0 0 0 0 0 0 0 0 0 0 0 0 0 0 0 0 0 0 0.05 0"/>
<feBlend mode="normal" in2="BackgroundImageFix" result="effect1_dropShadow_1143_2188"/>
<feBlend mode="normal" in="SourceGraphic" in2="effect1_dropShadow_1143_2188" result="shape"/>
</filter>
</defs>
</svg>
