<svg width="22" height="12" viewBox="0 0 22 12" fill="none" xmlns="http://www.w3.org/2000/svg">
<path d="M12.4009 0.362606H10.8938C10.4707 0.362606 10.0893 0.430594 9.74931 0.566572C9.40181 0.694995 9.10719 0.883853 8.86546 1.13314C8.62372 1.38244 8.43864 1.68461 8.31021 2.03966C8.18179 2.38716 8.11758 2.77998 8.11758 3.21813V4.53258H6.59917C6.53118 4.53258 6.47452 4.55524 6.42919 4.60057C6.38387 4.64589 6.36121 4.70255 6.36121 4.77054V6.67422C6.36121 6.74221 6.38387 6.79887 6.42919 6.84419C6.47452 6.88952 6.53118 6.91218 6.59917 6.91218H8.11758V11.728C8.11758 11.796 8.14024 11.8527 8.18557 11.898C8.23089 11.9433 8.28377 11.966 8.34421 11.966H10.3272C10.3876 11.966 10.4424 11.9433 10.4915 11.898C10.5406 11.8527 10.5652 11.796 10.5652 11.728V6.91218H12.3329C12.3933 6.91218 12.4481 6.88952 12.4972 6.84419C12.5463 6.79887 12.5708 6.74221 12.5708 6.67422V4.77054C12.5708 4.74032 12.5633 4.7101 12.5482 4.67989C12.5331 4.64967 12.5142 4.62323 12.4915 4.60057C12.4764 4.5779 12.4537 4.56091 12.4235 4.54957C12.3933 4.53824 12.3631 4.53258 12.3329 4.53258H10.5652V3.4221C10.5652 3.15014 10.6143 2.94618 10.7125 2.8102C10.8107 2.67422 11.0335 2.60623 11.381 2.60623H12.4009C12.4689 2.60623 12.5255 2.58357 12.5708 2.53824C12.6162 2.49292 12.6388 2.43626 12.6388 2.36827V0.600566C12.6388 0.532578 12.6162 0.475921 12.5708 0.430594C12.5255 0.385269 12.4689 0.362606 12.4009 0.362606Z" fill="white"/>
</svg>
