<svg width="13" height="12" viewBox="0 0 13 12" fill="none" xmlns="http://www.w3.org/2000/svg">
<path d="M12.3187 4.46459C12.3187 4.46459 12.3177 4.40227 12.3158 4.27762C12.314 4.15297 12.3055 3.93579 12.2904 3.62606C12.2752 3.31634 12.245 3.05005 12.1997 2.8272C12.1544 2.60434 12.0939 2.40227 12.0184 2.22096C11.9429 2.02455 11.8503 1.83947 11.7408 1.66572C11.6312 1.49197 11.5009 1.33333 11.3498 1.1898C11.2063 1.04627 11.0477 0.917848 10.8739 0.804533C10.7002 0.691218 10.5151 0.596789 10.3187 0.521247C10.1374 0.453258 9.9353 0.394712 9.71245 0.34561C9.4896 0.296506 9.22331 0.2644 8.91358 0.249292C8.60386 0.234183 8.32435 0.224741 8.07505 0.220963C7.82576 0.217186 7.30829 0.215298 6.52265 0.215298C5.737 0.215298 5.21953 0.217186 4.97024 0.220963C4.72095 0.224741 4.44144 0.234183 4.13171 0.249292C3.82199 0.2644 3.5557 0.294618 3.33285 0.339944C3.10999 0.385269 2.90792 0.445704 2.72661 0.521247C2.5302 0.596789 2.34512 0.68933 2.17137 0.798867C1.99762 0.908404 1.83898 1.03872 1.69545 1.1898C1.54437 1.33333 1.41217 1.49197 1.29885 1.66572C1.18554 1.83947 1.09488 2.02455 1.0269 2.22096C0.951353 2.40227 0.890919 2.60434 0.845593 2.8272C0.800267 3.05005 0.77005 3.31634 0.754942 3.62606C0.739833 3.93579 0.73039 4.2153 0.726613 4.46459C0.722836 4.71388 0.720947 5.23135 0.720947 6.017C0.720947 6.80264 0.722836 7.32011 0.726613 7.56941C0.73039 7.8187 0.739833 8.09821 0.754942 8.40793C0.77005 8.71766 0.800267 8.98395 0.845593 9.2068C0.890919 9.42965 0.951353 9.63173 1.0269 9.81303C1.09488 10.0094 1.18554 10.1945 1.29885 10.3683C1.41217 10.542 1.54437 10.7007 1.69545 10.8442C1.83898 10.9953 1.99762 11.1275 2.17137 11.2408C2.34512 11.3541 2.52642 11.4448 2.71528 11.5127C2.90414 11.5883 3.10999 11.6487 3.33285 11.6941C3.5557 11.7394 3.82199 11.7696 4.13171 11.7847C4.44144 11.7998 4.71906 11.8093 4.96457 11.813C5.21009 11.8168 5.72945 11.8187 6.52265 11.8187C7.30829 11.8187 7.82576 11.8168 8.07505 11.813C8.32435 11.8093 8.60386 11.7998 8.91358 11.7847C9.22331 11.7696 9.4896 11.7394 9.71245 11.6941C9.9353 11.6487 10.1374 11.5883 10.3187 11.5127C10.7115 11.3617 11.0552 11.1388 11.3498 10.8442C11.6445 10.5496 11.8673 10.2059 12.0184 9.81303C12.0864 9.63173 12.1449 9.42965 12.194 9.2068C12.2431 8.98395 12.2752 8.71766 12.2904 8.40793C12.2979 8.09821 12.3055 7.8187 12.313 7.56941C12.3206 7.32011 12.3243 6.80264 12.3243 6.017C12.3243 5.23135 12.3225 4.71388 12.3187 4.46459ZM11.2479 8.36261C11.2328 8.64967 11.2044 8.8763 11.1629 9.04249C11.1213 9.20869 11.0817 9.34089 11.0439 9.43909C10.9457 9.69594 10.8003 9.91879 10.6076 10.1076C10.415 10.2965 10.194 10.44 9.94474 10.5382C9.83898 10.5836 9.70301 10.6251 9.53681 10.6629C9.37062 10.7007 9.14777 10.7271 8.86826 10.7422C8.55853 10.7573 8.28469 10.7668 8.04673 10.7705C7.80877 10.7743 7.30074 10.7762 6.52265 10.7762C5.75211 10.7762 5.24597 10.7743 5.00423 10.7705C4.7625 10.7668 4.48676 10.7573 4.17704 10.7422C3.89753 10.7271 3.67468 10.7007 3.50848 10.6629C3.34229 10.6251 3.20631 10.5836 3.10055 10.5382C2.97968 10.4929 2.86259 10.4344 2.74928 10.3626C2.63596 10.2908 2.5302 10.2059 2.432 10.1076C2.34134 10.017 2.25825 9.91501 2.1827 9.8017C2.10716 9.68839 2.04673 9.56752 2.0014 9.43909C1.96363 9.34089 1.92397 9.20869 1.88242 9.04249C1.84087 8.8763 1.81632 8.64967 1.80877 8.36261C1.79366 8.06043 1.78421 7.78848 1.78044 7.54674C1.77666 7.30501 1.77477 6.79509 1.77477 6.017C1.77477 5.24646 1.77666 4.74032 1.78044 4.49858C1.78421 4.25685 1.79366 3.98489 1.80877 3.68272C1.81632 3.39566 1.84087 3.16903 1.88242 3.00283C1.92397 2.83664 1.96363 2.70444 2.0014 2.60623C2.04673 2.47781 2.10716 2.35694 2.1827 2.24363C2.25825 2.13031 2.34512 2.02833 2.44333 1.93768C2.53398 1.83947 2.63596 1.75449 2.74928 1.68272C2.86259 1.61095 2.97968 1.55241 3.10055 1.50708C3.20631 1.46176 3.34229 1.42021 3.50848 1.38244C3.67468 1.34466 3.89753 1.31822 4.17704 1.30312C4.48676 1.28801 4.7625 1.27856 5.00423 1.27479C5.24597 1.27101 5.75211 1.26912 6.52265 1.26912C7.30074 1.26912 7.81065 1.27101 8.05239 1.27479C8.29413 1.27856 8.56608 1.28801 8.86826 1.30312C9.15532 1.31822 9.38195 1.34466 9.54814 1.38244C9.71434 1.42021 9.84654 1.46176 9.94474 1.50708C10.0732 1.55241 10.194 1.61095 10.3073 1.68272C10.4207 1.75449 10.5226 1.83947 10.6133 1.93768C10.7115 2.02833 10.7965 2.13031 10.8683 2.24363C10.94 2.35694 10.9986 2.47781 11.0439 2.60623C11.0817 2.70444 11.1213 2.83664 11.1629 3.00283C11.2044 3.16903 11.2328 3.39566 11.2479 3.68272C11.263 3.98489 11.2724 4.25685 11.2762 4.49858C11.28 4.74032 11.2819 5.24646 11.2819 6.017C11.2819 6.79509 11.28 7.30501 11.2762 7.54674C11.2724 7.78848 11.263 8.06043 11.2479 8.36261ZM6.52265 3.03683C6.10716 3.03683 5.72189 3.11615 5.36684 3.27479C5.00423 3.42587 4.68695 3.63739 4.415 3.90935C4.14304 4.1813 3.93152 4.49858 3.78044 4.86119C3.6218 5.2238 3.54248 5.60907 3.54248 6.017C3.54248 6.43248 3.6218 6.81775 3.78044 7.1728C3.93152 7.53541 4.14304 7.85269 4.415 8.12465C4.68695 8.3966 5.00423 8.60812 5.36684 8.75921C5.72189 8.91785 6.10716 8.99717 6.52265 8.99717C6.93058 8.99717 7.31585 8.91785 7.67845 8.75921C8.04106 8.60812 8.35834 8.3966 8.6303 8.12465C8.90225 7.85269 9.11377 7.53541 9.26486 7.1728C9.4235 6.81775 9.50282 6.43248 9.50282 6.017C9.50282 5.60907 9.4235 5.2238 9.26486 4.86119C9.11377 4.49858 8.90225 4.1813 8.6303 3.90935C8.35834 3.63739 8.04106 3.42587 7.67845 3.27479C7.31585 3.11615 6.93058 3.03683 6.52265 3.03683ZM7.89375 7.3881C7.89375 7.3881 7.79932 7.48253 7.61047 7.67139C7.42161 7.86025 7.059 7.95467 6.52265 7.95467C5.98629 7.95467 5.52926 7.76582 5.15154 7.3881C4.77383 7.01039 4.58497 6.55335 4.58497 6.017C4.58497 5.48064 4.77383 5.02361 5.15154 4.64589C5.52926 4.26818 5.98629 4.07932 6.52265 4.07932C7.059 4.07932 7.51604 4.26818 7.89375 4.64589C8.27147 5.02361 8.46032 5.48064 8.46032 6.017C8.46032 6.55335 8.27147 7.01039 7.89375 7.3881ZM10.3187 2.92351C10.3187 3.11237 10.2507 3.27479 10.1147 3.41076C9.97874 3.54674 9.81254 3.61473 9.61613 3.61473C9.42727 3.61473 9.26486 3.54674 9.12888 3.41076C8.9929 3.27479 8.92491 3.11237 8.92491 2.92351C8.92491 2.7271 8.9929 2.56091 9.12888 2.42493C9.26486 2.28895 9.42727 2.22096 9.61613 2.22096C9.81254 2.22096 9.97874 2.28895 10.1147 2.42493C10.2507 2.56091 10.3187 2.7271 10.3187 2.92351Z" fill="white"/>
</svg>
