<svg width="15" height="11" viewBox="0 0 15 11" fill="none" xmlns="http://www.w3.org/2000/svg">
<path d="M13.9766 3.47266C14.0859 3.39062 14.25 3.47266 14.25 3.60938V9.1875C14.25 9.92578 13.6484 10.5 12.9375 10.5H1.5625C0.824219 10.5 0.25 9.92578 0.25 9.1875V3.60938C0.25 3.47266 0.386719 3.39062 0.496094 3.47266C1.125 3.96484 1.91797 4.56641 4.70703 6.58984C5.28125 7 6.26562 7.90234 7.25 7.90234C8.20703 7.90234 9.21875 7 9.76562 6.58984C12.5547 4.56641 13.3477 3.96484 13.9766 3.47266ZM7.25 7C6.59375 7.02734 5.69141 6.20703 5.22656 5.87891C1.58984 3.25391 1.31641 3.00781 0.496094 2.35156C0.332031 2.24219 0.25 2.05078 0.25 1.83203V1.3125C0.25 0.601562 0.824219 0 1.5625 0H12.9375C13.6484 0 14.25 0.601562 14.25 1.3125V1.83203C14.25 2.05078 14.1406 2.24219 13.9766 2.35156C13.1562 3.00781 12.8828 3.25391 9.24609 5.87891C8.78125 6.20703 7.87891 7.02734 7.25 7Z" fill="#F0A837"/>
</svg>
