<svg width="22" height="12" viewBox="0 0 22 12" fill="none" xmlns="http://www.w3.org/2000/svg">
<path d="M15.3016 2.56091C15.0901 2.65911 14.8692 2.74032 14.6388 2.80453C14.4083 2.86874 14.1723 2.91218 13.9305 2.93484C14.1798 2.79131 14.3951 2.60623 14.5764 2.3796C14.7577 2.15298 14.8937 1.89991 14.9844 1.6204C14.7502 1.75637 14.5066 1.87347 14.2535 1.97167C14.0004 2.06988 13.7379 2.14542 13.4659 2.1983C13.2469 1.97167 12.9881 1.79037 12.6897 1.65439C12.3913 1.51841 12.0722 1.45043 11.7322 1.45043C11.3998 1.45043 11.0901 1.51086 10.8031 1.63173C10.516 1.76015 10.2648 1.93201 10.0495 2.14731C9.83422 2.36261 9.66236 2.61379 9.53394 2.90085C9.41307 3.18791 9.35263 3.49764 9.35263 3.83003C9.35263 3.92068 9.3583 4.01133 9.36963 4.10198C9.38096 4.19264 9.39418 4.28329 9.40929 4.37394C8.91826 4.34372 8.44234 4.26818 7.98153 4.14731C7.51316 4.01889 7.07124 3.84703 6.65575 3.63173C6.24026 3.41643 5.85122 3.16147 5.48861 2.86686C5.126 2.57224 4.79739 2.24363 4.50277 1.88102C4.40457 2.06232 4.32714 2.25307 4.27048 2.45326C4.21382 2.65345 4.18549 2.86308 4.18549 3.08215C4.18549 3.49764 4.28181 3.87724 4.47445 4.22096C4.66708 4.56468 4.92204 4.84608 5.23932 5.06516C5.05046 5.0576 4.86349 5.02738 4.67841 4.9745C4.49333 4.92162 4.32147 4.84986 4.16283 4.75921V4.7932C4.16283 5.36733 4.34602 5.87158 4.71241 6.30595C5.07879 6.74032 5.53394 7.01416 6.07785 7.12748C5.97209 7.15014 5.86821 7.16903 5.76623 7.18414C5.66425 7.19924 5.5566 7.2068 5.44328 7.2068C5.36774 7.2068 5.2922 7.20302 5.21666 7.19547C5.14111 7.18791 5.06935 7.17658 5.00136 7.16147C5.15244 7.63739 5.43006 8.03022 5.83422 8.33994C6.23837 8.64967 6.70108 8.80831 7.22232 8.81586C6.81439 9.1407 6.35924 9.39188 5.85688 9.56941C5.35452 9.74693 4.82383 9.83569 4.26481 9.83569C4.16661 9.83569 4.07029 9.83381 3.97586 9.83003C3.88143 9.82625 3.78889 9.81681 3.69824 9.8017C3.96264 9.97545 4.23837 10.1265 4.52544 10.255C4.8125 10.3909 5.10901 10.5042 5.41496 10.5949C5.72091 10.6856 6.0363 10.7535 6.36113 10.7989C6.68597 10.8517 7.01458 10.8782 7.34697 10.8782C8.44234 10.8782 9.40929 10.6704 10.2478 10.255C11.0939 9.84703 11.804 9.31822 12.3781 8.66856C12.9523 8.01889 13.3866 7.29367 13.6812 6.49292C13.9759 5.68461 14.1232 4.88763 14.1232 4.10198L14.1118 3.79603C14.346 3.62984 14.5632 3.44287 14.7634 3.23513C14.9636 3.02738 15.143 2.80264 15.3016 2.56091Z" fill="white"/>
</svg>
