<svg width="13" height="12" viewBox="0 0 13 12" fill="none" xmlns="http://www.w3.org/2000/svg">
<path d="M12.0977 3.4221C12.0297 3.11237 11.8805 2.85363 11.6501 2.64589C11.4197 2.43815 11.1534 2.31539 10.8512 2.27762C10.4886 2.23985 10.126 2.20963 9.7634 2.18697C9.40079 2.16431 9.03819 2.14731 8.67558 2.13598C8.31297 2.12465 7.95037 2.11898 7.58776 2.11898H6.49994H5.41212L4.3243 2.14164L3.23649 2.18697L2.16 2.27762C1.85027 2.31539 1.58021 2.43815 1.3498 2.64589C1.11939 2.85363 0.970197 3.11237 0.902208 3.4221C0.804002 3.86024 0.745457 4.3135 0.726571 4.78187C0.707685 5.25024 0.698242 5.71105 0.698242 6.16431C0.698242 6.61756 0.705796 7.07838 0.720905 7.54674C0.736014 8.01511 0.796448 8.46837 0.902208 8.90651C0.970197 9.21624 1.11939 9.47498 1.3498 9.68272C1.58021 9.89046 1.85027 10.0094 2.16 10.0397C2.51505 10.085 2.87388 10.119 3.23649 10.1416C3.59909 10.1643 3.9617 10.1794 4.3243 10.187C4.68691 10.1945 5.04952 10.1983 5.41212 10.1983C5.77473 10.2059 6.13734 10.2096 6.49994 10.2096C6.86255 10.2096 7.22515 10.2059 7.58776 10.1983C7.95037 10.1983 8.31297 10.1945 8.67558 10.187C9.03819 10.1794 9.40079 10.1643 9.7634 10.1416C10.126 10.119 10.4848 10.085 10.8399 10.0397C11.1496 10.0094 11.4197 9.89046 11.6501 9.68272C11.8805 9.47498 12.0297 9.21624 12.0977 8.90651C12.1959 8.46837 12.2544 8.01511 12.2733 7.54674C12.2922 7.07838 12.3016 6.61756 12.3016 6.16431C12.3016 5.71105 12.2941 5.25024 12.279 4.78187C12.2639 4.3135 12.2034 3.86024 12.0977 3.4221ZM5.00419 7.966V7.00283V6.03966V5.08782V4.12465C5.31392 4.28329 5.61987 4.4457 5.92204 4.6119C6.23176 4.77054 6.5396 4.92918 6.84555 5.08782C7.1515 5.24646 7.45934 5.4051 7.76906 5.56374C8.07124 5.72993 8.37718 5.89235 8.68691 6.05099C8.38474 6.20963 8.07879 6.36827 7.76906 6.52691C7.45934 6.68555 7.1515 6.84419 6.84555 7.00283C6.5396 7.16147 6.23176 7.32389 5.92204 7.49008C5.61987 7.64872 5.31392 7.80736 5.00419 7.966Z" fill="white"/>
</svg>
