<svg width="15" height="14" viewBox="0 0 15 14" fill="none" xmlns="http://www.w3.org/2000/svg">
<path d="M5.27097 1.45831C5.27097 1.34228 5.22488 1.231 5.14283 1.14895C5.06079 1.06691 4.94951 1.02081 4.83347 1.02081C4.71744 1.02081 4.60616 1.06691 4.52411 1.14895C4.44207 1.231 4.39597 1.34228 4.39597 1.45831V2.37998C3.55597 2.44706 3.00531 2.61156 2.60047 3.01698C2.19506 3.42181 2.03056 3.97306 1.96289 4.81248H13.5374C13.4697 3.97248 13.3052 3.42181 12.8998 3.01698C12.495 2.61156 11.9437 2.44706 11.1043 2.3794V1.45831C11.1043 1.34228 11.0582 1.231 10.9762 1.14895C10.8941 1.06691 10.7828 1.02081 10.6668 1.02081C10.5508 1.02081 10.4395 1.06691 10.3574 1.14895C10.2754 1.231 10.2293 1.34228 10.2293 1.45831V2.3409C9.84139 2.33331 9.40622 2.33331 8.91681 2.33331H6.58347C6.09406 2.33331 5.65889 2.33331 5.27097 2.3409V1.45831Z" fill="white"/>
<path fill-rule="evenodd" clip-rule="evenodd" d="M1.91699 7C1.91699 6.51058 1.91699 6.07542 1.92458 5.6875H13.5761C13.5837 6.07542 13.5837 6.51058 13.5837 7V8.16667C13.5837 10.3664 13.5837 11.4666 12.9 12.1497C12.2163 12.8327 11.1167 12.8333 8.91699 12.8333H6.58366C4.38391 12.8333 3.28374 12.8333 2.60066 12.1497C1.91758 11.466 1.91699 10.3664 1.91699 8.16667V7ZM10.667 8.16667C10.8217 8.16667 10.9701 8.10521 11.0795 7.99581C11.1889 7.88642 11.2503 7.73804 11.2503 7.58333C11.2503 7.42862 11.1889 7.28025 11.0795 7.17085C10.9701 7.06146 10.8217 7 10.667 7C10.5123 7 10.3639 7.06146 10.2545 7.17085C10.1451 7.28025 10.0837 7.42862 10.0837 7.58333C10.0837 7.73804 10.1451 7.88642 10.2545 7.99581C10.3639 8.10521 10.5123 8.16667 10.667 8.16667ZM10.667 10.5C10.8217 10.5 10.9701 10.4385 11.0795 10.3291C11.1889 10.2197 11.2503 10.0714 11.2503 9.91667C11.2503 9.76196 11.1889 9.61358 11.0795 9.50419C10.9701 9.39479 10.8217 9.33333 10.667 9.33333C10.5123 9.33333 10.3639 9.39479 10.2545 9.50419C10.1451 9.61358 10.0837 9.76196 10.0837 9.91667C10.0837 10.0714 10.1451 10.2197 10.2545 10.3291C10.3639 10.4385 10.5123 10.5 10.667 10.5ZM8.33366 7.58333C8.33366 7.73804 8.2722 7.88642 8.1628 7.99581C8.05341 8.10521 7.90504 8.16667 7.75033 8.16667C7.59562 8.16667 7.44724 8.10521 7.33785 7.99581C7.22845 7.88642 7.16699 7.73804 7.16699 7.58333C7.16699 7.42862 7.22845 7.28025 7.33785 7.17085C7.44724 7.06146 7.59562 7 7.75033 7C7.90504 7 8.05341 7.06146 8.1628 7.17085C8.2722 7.28025 8.33366 7.42862 8.33366 7.58333ZM8.33366 9.91667C8.33366 10.0714 8.2722 10.2197 8.1628 10.3291C8.05341 10.4385 7.90504 10.5 7.75033 10.5C7.59562 10.5 7.44724 10.4385 7.33785 10.3291C7.22845 10.2197 7.16699 10.0714 7.16699 9.91667C7.16699 9.76196 7.22845 9.61358 7.33785 9.50419C7.44724 9.39479 7.59562 9.33333 7.75033 9.33333C7.90504 9.33333 8.05341 9.39479 8.1628 9.50419C8.2722 9.61358 8.33366 9.76196 8.33366 9.91667ZM4.83366 8.16667C4.98837 8.16667 5.13674 8.10521 5.24614 7.99581C5.35553 7.88642 5.41699 7.73804 5.41699 7.58333C5.41699 7.42862 5.35553 7.28025 5.24614 7.17085C5.13674 7.06146 4.98837 7 4.83366 7C4.67895 7 4.53058 7.06146 4.42118 7.17085C4.31178 7.28025 4.25033 7.42862 4.25033 7.58333C4.25033 7.73804 4.31178 7.88642 4.42118 7.99581C4.53058 8.10521 4.67895 8.16667 4.83366 8.16667ZM4.83366 10.5C4.98837 10.5 5.13674 10.4385 5.24614 10.3291C5.35553 10.2197 5.41699 10.0714 5.41699 9.91667C5.41699 9.76196 5.35553 9.61358 5.24614 9.50419C5.13674 9.39479 4.98837 9.33333 4.83366 9.33333C4.67895 9.33333 4.53058 9.39479 4.42118 9.50419C4.31178 9.61358 4.25033 9.76196 4.25033 9.91667C4.25033 10.0714 4.31178 10.2197 4.42118 10.3291C4.53058 10.4385 4.67895 10.5 4.83366 10.5Z" fill="white"/>
</svg>
