<svg width="19" height="19" viewBox="0 0 19 19" fill="none" xmlns="http://www.w3.org/2000/svg">
<path d="M0 3.25C0 2.38805 0.34241 1.5614 0.951903 0.951903C1.5614 0.34241 2.38805 0 3.25 0H12.75C13.612 0 14.4386 0.34241 15.0481 0.951903C15.6576 1.5614 16 2.38805 16 3.25V12.75C16 13.612 15.6576 14.4386 15.0481 15.0481C14.4386 15.6576 13.612 16 12.75 16H3.25C2.38805 16 1.5614 15.6576 0.951903 15.0481C0.34241 14.4386 0 13.612 0 12.75V3.25ZM12.28 6.03C12.4125 5.88783 12.4846 5.69978 12.4812 5.50548C12.4777 5.31118 12.399 5.12579 12.2616 4.98838C12.1242 4.85097 11.9388 4.77225 11.7445 4.76883C11.5502 4.7654 11.3622 4.83752 11.22 4.97L7 9.19L5.03 7.22C4.96134 7.14631 4.87854 7.08721 4.78654 7.04622C4.69454 7.00523 4.59523 6.98318 4.49452 6.98141C4.39382 6.97963 4.29379 6.99816 4.2004 7.03588C4.10701 7.0736 4.02218 7.12974 3.95096 7.20096C3.87974 7.27218 3.8236 7.35701 3.78588 7.4504C3.74816 7.54379 3.72963 7.64382 3.73141 7.74452C3.73319 7.84522 3.75523 7.94454 3.79622 8.03654C3.83721 8.12854 3.89631 8.21134 3.97 8.28L6.47 10.78C6.61063 10.9205 6.80125 10.9993 7 10.9993C7.19875 10.9993 7.38937 10.9205 7.53 10.78L12.28 6.03ZM3.5 17C3.79406 17.4602 4.19934 17.8388 4.67841 18.101C5.15748 18.3632 5.69489 18.5004 6.241 18.5H13.246C13.936 18.5 14.6192 18.3641 15.2566 18.1001C15.8941 17.836 16.4733 17.449 16.9611 16.9611C17.449 16.4733 17.836 15.8941 18.1001 15.2566C18.3641 14.6192 18.5 13.936 18.5 13.246V6.241C18.5003 5.69479 18.3629 5.15732 18.1006 4.67825C17.8382 4.19917 17.4594 3.79394 16.999 3.5V13.246C16.9991 13.7389 16.9022 14.2271 16.7136 14.6825C16.5251 15.138 16.2486 15.5518 15.9001 15.9004C15.5516 16.249 15.1378 16.5256 14.6824 16.7142C14.227 16.9029 13.7389 17 13.246 17H3.5Z" fill="#F0A837"/>
</svg>
