<svg width="16" height="19" viewBox="0 0 16 19" fill="none" xmlns="http://www.w3.org/2000/svg">
<path fill-rule="evenodd" clip-rule="evenodd" d="M8 0.666687C9.98912 0.666687 11.8968 1.45686 13.3033 2.86339C14.7098 4.26991 15.5 6.17756 15.5 8.16669C15.5 10.7284 14.1033 12.825 12.6317 14.3292C11.8964 15.0726 11.0941 15.7465 10.235 16.3425L9.88 16.5842L9.71333 16.695L9.39917 16.895L9.11917 17.0659L8.7725 17.2675C8.5372 17.4018 8.27094 17.4725 8 17.4725C7.72906 17.4725 7.4628 17.4018 7.2275 17.2675L6.88083 17.0659L6.4475 16.7992L6.2875 16.695L5.94583 16.4675C5.01903 15.8405 4.15575 15.1243 3.36833 14.3292C1.89667 12.8242 0.5 10.7284 0.5 8.16669C0.5 6.17756 1.29018 4.26991 2.6967 2.86339C4.10322 1.45686 6.01088 0.666687 8 0.666687ZM8 2.33335C6.4529 2.33335 4.96917 2.94794 3.87521 4.0419C2.78125 5.13586 2.16667 6.61959 2.16667 8.16669C2.16667 10.1017 3.22667 11.8 4.55917 13.1634C5.13211 13.7433 5.75138 14.2757 6.41083 14.755L6.7925 15.0267C6.91583 15.1128 7.03444 15.1928 7.14833 15.2667L7.47333 15.475L7.75917 15.6492L8 15.79L8.37917 15.5659L8.685 15.3742C8.84778 15.2709 9.02194 15.155 9.2075 15.0267L9.58917 14.755C10.2486 14.2757 10.8679 13.7433 11.4408 13.1634C12.7733 11.8009 13.8333 10.1017 13.8333 8.16669C13.8333 6.61959 13.2188 5.13586 12.1248 4.0419C11.0308 2.94794 9.5471 2.33335 8 2.33335ZM8 4.83335C8.88406 4.83335 9.7319 5.18454 10.357 5.80966C10.9821 6.43479 11.3333 7.28263 11.3333 8.16669C11.3333 9.05074 10.9821 9.89859 10.357 10.5237C9.7319 11.1488 8.88406 11.5 8 11.5C7.11594 11.5 6.2681 11.1488 5.64298 10.5237C5.01786 9.89859 4.66667 9.05074 4.66667 8.16669C4.66667 7.28263 5.01786 6.43479 5.64298 5.80966C6.2681 5.18454 7.11594 4.83335 8 4.83335ZM8 6.50002C7.55797 6.50002 7.13405 6.67562 6.82149 6.98818C6.50893 7.30074 6.33333 7.72466 6.33333 8.16669C6.33333 8.60872 6.50893 9.03264 6.82149 9.3452C7.13405 9.65776 7.55797 9.83335 8 9.83335C8.44203 9.83335 8.86595 9.65776 9.17851 9.3452C9.49107 9.03264 9.66667 8.60872 9.66667 8.16669C9.66667 7.72466 9.49107 7.30074 9.17851 6.98818C8.86595 6.67562 8.44203 6.50002 8 6.50002Z" fill="#F0A837"/>
</svg>
