<svg width="39" height="39" viewBox="0 0 39 39" fill="none" xmlns="http://www.w3.org/2000/svg">
<rect width="38.3501" height="38.3501" rx="4" fill="#F0A837" fill-opacity="0.22"/>
<path d="M21.9818 9.86707H13.5928C13.0983 9.86707 12.6242 10.0635 12.2745 10.4131C11.9249 10.7627 11.7285 11.2369 11.7285 11.7313V26.6452C11.7285 27.1397 11.9249 27.6138 12.2745 27.9634C12.6242 28.3131 13.0983 28.5095 13.5928 28.5095H24.7782C25.2726 28.5095 25.7468 28.3131 26.0964 27.9634C26.446 27.6138 26.6424 27.1397 26.6424 26.6452V14.5277L21.9818 9.86707Z" stroke="#F0A837" stroke-width="1.49139" stroke-linecap="round" stroke-linejoin="round"/>
<path d="M21.0498 9.86707V13.5955C21.0498 14.09 21.2462 14.5642 21.5958 14.9138C21.9454 15.2634 22.4196 15.4598 22.914 15.4598H26.6425" stroke="#F0A837" stroke-width="1.49139" stroke-linecap="round" stroke-linejoin="round"/>
<path d="M19.1855 19.1874V24.7801" stroke="#F0A837" stroke-width="1.49139" stroke-linecap="round" stroke-linejoin="round"/>
<path d="M21.9824 21.9837L19.186 19.1874L16.3896 21.9837" stroke="#F0A837" stroke-width="1.49139" stroke-linecap="round" stroke-linejoin="round"/>
</svg>
