<svg width="40" height="40" viewBox="0 0 40 40" fill="none" xmlns="http://www.w3.org/2000/svg">
<rect y="0.149902" width="39.59" height="39.59" rx="19.795" fill="#F0A837"/>
<path d="M24.1513 11.4938H21.8906C21.2561 11.4938 20.6838 11.5958 20.1739 11.7998C19.6527 11.9924 19.2108 12.2757 18.8482 12.6496C18.4855 13.0236 18.2079 13.4768 18.0153 14.0094C17.8227 14.5307 17.7263 15.1199 17.7263 15.7771V17.7488H15.4487C15.3467 17.7488 15.2618 17.7828 15.1938 17.8508C15.1258 17.9188 15.0918 18.0037 15.0918 18.1057V20.9612C15.0918 21.0632 15.1258 21.1482 15.1938 21.2162C15.2618 21.2842 15.3467 21.3182 15.4487 21.3182H17.7263V28.542C17.7263 28.644 17.7603 28.729 17.8283 28.7969C17.8963 28.8649 17.9756 28.8989 18.0663 28.8989H21.0408C21.1314 28.8989 21.2136 28.8649 21.2872 28.7969C21.3609 28.729 21.3977 28.644 21.3977 28.542V21.3182H24.0493C24.1399 21.3182 24.2221 21.2842 24.2957 21.2162C24.3694 21.1482 24.4062 21.0632 24.4062 20.9612V18.1057C24.4062 18.0604 24.3949 18.0151 24.3722 17.9697C24.3496 17.9244 24.3212 17.8848 24.2872 17.8508C24.2646 17.8168 24.2306 17.7913 24.1853 17.7743C24.1399 17.7573 24.0946 17.7488 24.0493 17.7488H21.3977V16.0831C21.3977 15.6751 21.4714 15.3692 21.6187 15.1652C21.766 14.9612 22.1003 14.8593 22.6215 14.8593H24.1513C24.2533 14.8593 24.3382 14.8253 24.4062 14.7573C24.4742 14.6893 24.5082 14.6043 24.5082 14.5023V11.8508C24.5082 11.7488 24.4742 11.6638 24.4062 11.5958C24.3382 11.5278 24.2533 11.4938 24.1513 11.4938Z" fill="white"/>
</svg>
