<svg width="41" height="40" viewBox="0 0 41 40" fill="none" xmlns="http://www.w3.org/2000/svg">
<rect x="0.589996" y="0.149902" width="39.59" height="39.59" rx="19.795" fill="#F0A837"/>
<path d="M29.118 17.6468C29.118 17.6468 29.1166 17.5533 29.1138 17.3664C29.111 17.1794 29.0982 16.8536 29.0755 16.389C29.0529 15.9244 29.0076 15.525 28.9396 15.1907C28.8716 14.8564 28.7809 14.5533 28.6676 14.2814C28.5543 13.9868 28.4155 13.7091 28.2512 13.4485C28.0869 13.1879 27.8914 12.9499 27.6648 12.7346C27.4495 12.5193 27.2115 12.3267 26.9509 12.1567C26.6903 11.9868 26.4127 11.8451 26.118 11.7318C25.8461 11.6298 25.543 11.542 25.2087 11.4683C24.8744 11.3947 24.475 11.3465 24.0104 11.3239C23.5458 11.3012 23.1265 11.287 22.7526 11.2814C22.3787 11.2757 21.6025 11.2729 20.424 11.2729C19.2455 11.2729 18.4693 11.2757 18.0954 11.2814C17.7214 11.287 17.3022 11.3012 16.8376 11.3239C16.373 11.3465 15.9736 11.3919 15.6393 11.4598C15.305 11.5278 15.0019 11.6185 14.7299 11.7318C14.4353 11.8451 14.1577 11.9839 13.8971 12.1482C13.6364 12.3125 13.3985 12.508 13.1832 12.7346C12.9566 12.9499 12.7583 13.1879 12.5883 13.4485C12.4183 13.7091 12.2823 13.9868 12.1804 14.2814C12.067 14.5533 11.9764 14.8564 11.9084 15.1907C11.8404 15.525 11.7951 15.9244 11.7724 16.389C11.7498 16.8536 11.7356 17.2729 11.7299 17.6468C11.7243 18.0208 11.7214 18.797 11.7214 19.9754C11.7214 21.1539 11.7243 21.9301 11.7299 22.304C11.7356 22.678 11.7498 23.0972 11.7724 23.5618C11.7951 24.0264 11.8404 24.4259 11.9084 24.7601C11.9764 25.0944 12.067 25.3975 12.1804 25.6695C12.2823 25.9641 12.4183 26.2417 12.5883 26.5023C12.7583 26.763 12.9566 27.0009 13.1832 27.2162C13.3985 27.4429 13.6364 27.6412 13.8971 27.8111C14.1577 27.9811 14.4297 28.1171 14.7129 28.2191C14.9962 28.3324 15.305 28.423 15.6393 28.491C15.9736 28.559 16.373 28.6043 16.8376 28.627C17.3022 28.6496 17.7186 28.6638 18.0869 28.6695C18.4551 28.6751 19.2342 28.678 20.424 28.678C21.6025 28.678 22.3787 28.6751 22.7526 28.6695C23.1265 28.6638 23.5458 28.6496 24.0104 28.627C24.475 28.6043 24.8744 28.559 25.2087 28.491C25.543 28.423 25.8461 28.3324 26.118 28.2191C26.7073 27.9924 27.2229 27.6581 27.6648 27.2162C28.1067 26.7743 28.441 26.2587 28.6676 25.6695C28.7696 25.3975 28.8574 25.0944 28.9311 24.7601C29.0047 24.4259 29.0529 24.0264 29.0755 23.5618C29.0869 23.0972 29.0982 22.678 29.1095 22.304C29.1209 21.9301 29.1265 21.1539 29.1265 19.9754C29.1265 18.797 29.1237 18.0208 29.118 17.6468ZM27.5118 23.4938C27.4891 23.9244 27.4466 24.2644 27.3843 24.5137C27.322 24.763 27.2625 24.9613 27.2059 25.1086C27.0585 25.4938 26.8404 25.8281 26.5515 26.1114C26.2625 26.3947 25.9311 26.61 25.5571 26.7573C25.3985 26.8253 25.1945 26.8876 24.9452 26.9443C24.6959 27.0009 24.3617 27.0406 23.9424 27.0632C23.4778 27.0859 23.067 27.1001 22.7101 27.1057C22.3532 27.1114 21.5911 27.1142 20.424 27.1142C19.2682 27.1142 18.509 27.1114 18.1464 27.1057C17.7838 27.1001 17.3702 27.0859 16.9056 27.0632C16.4863 27.0406 16.152 27.0009 15.9027 26.9443C15.6534 26.8876 15.4495 26.8253 15.2908 26.7573C15.1095 26.6893 14.9339 26.6015 14.7639 26.4938C14.594 26.3862 14.4353 26.2587 14.288 26.1114C14.152 25.9754 14.0274 25.8225 13.9141 25.6525C13.8008 25.4825 13.7101 25.3012 13.6421 25.1086C13.5855 24.9613 13.526 24.763 13.4636 24.5137C13.4013 24.2644 13.3645 23.9244 13.3532 23.4938C13.3305 23.0406 13.3163 22.6327 13.3107 22.27C13.305 21.9074 13.3022 21.1426 13.3022 19.9754C13.3022 18.8196 13.305 18.0604 13.3107 17.6978C13.3163 17.3352 13.3305 16.9273 13.3532 16.474C13.3645 16.0434 13.4013 15.7035 13.4636 15.4542C13.526 15.2049 13.5855 15.0066 13.6421 14.8593C13.7101 14.6666 13.8008 14.4853 13.9141 14.3154C14.0274 14.1454 14.1577 13.9924 14.305 13.8564C14.441 13.7091 14.594 13.5817 14.7639 13.474C14.9339 13.3664 15.1095 13.2785 15.2908 13.2106C15.4495 13.1426 15.6534 13.0802 15.9027 13.0236C16.152 12.9669 16.4863 12.9273 16.9056 12.9046C17.3702 12.8819 17.7838 12.8678 18.1464 12.8621C18.509 12.8564 19.2682 12.8536 20.424 12.8536C21.5911 12.8536 22.356 12.8564 22.7186 12.8621C23.0812 12.8678 23.4891 12.8819 23.9424 12.9046C24.373 12.9273 24.7129 12.9669 24.9622 13.0236C25.2115 13.0802 25.4098 13.1426 25.5571 13.2106C25.7498 13.2785 25.9311 13.3664 26.101 13.474C26.271 13.5817 26.424 13.7091 26.56 13.8564C26.7073 13.9924 26.8348 14.1454 26.9424 14.3154C27.05 14.4853 27.1379 14.6666 27.2059 14.8593C27.2625 15.0066 27.322 15.2049 27.3843 15.4542C27.4466 15.7035 27.4891 16.0434 27.5118 16.474C27.5345 16.9273 27.5486 17.3352 27.5543 17.6978C27.56 18.0604 27.5628 18.8196 27.5628 19.9754C27.5628 21.1426 27.56 21.9074 27.5543 22.27C27.5486 22.6327 27.5345 23.0406 27.5118 23.4938ZM20.424 15.5052C19.8008 15.5052 19.2229 15.6242 18.6903 15.8621C18.1464 16.0887 17.6704 16.406 17.2625 16.814C16.8546 17.2219 16.5373 17.6978 16.3107 18.2417C16.0727 18.7856 15.9537 19.3635 15.9537 19.9754C15.9537 20.5987 16.0727 21.1766 16.3107 21.7091C16.5373 22.253 16.8546 22.729 17.2625 23.1369C17.6704 23.5448 18.1464 23.8621 18.6903 24.0887C19.2229 24.3267 19.8008 24.4457 20.424 24.4457C21.0359 24.4457 21.6138 24.3267 22.1577 24.0887C22.7016 23.8621 23.1775 23.5448 23.5855 23.1369C23.9934 22.729 24.3107 22.253 24.5373 21.7091C24.7753 21.1766 24.8942 20.5987 24.8942 19.9754C24.8942 19.3635 24.7753 18.7856 24.5373 18.2417C24.3107 17.6978 23.9934 17.2219 23.5855 16.814C23.1775 16.406 22.7016 16.0887 22.1577 15.8621C21.6138 15.6242 21.0359 15.5052 20.424 15.5052ZM22.4806 22.0321C22.4806 22.0321 22.339 22.1737 22.0557 22.457C21.7724 22.7403 21.2285 22.8819 20.424 22.8819C19.6195 22.8819 18.9339 22.5987 18.3673 22.0321C17.8008 21.4655 17.5175 20.78 17.5175 19.9754C17.5175 19.1709 17.8008 18.4853 18.3673 17.9188C18.9339 17.3522 19.6195 17.0689 20.424 17.0689C21.2285 17.0689 21.9141 17.3522 22.4806 17.9188C23.0472 18.4853 23.3305 19.1709 23.3305 19.9754C23.3305 20.78 23.0472 21.4655 22.4806 22.0321ZM26.118 15.3352C26.118 15.6185 26.0161 15.8621 25.8121 16.0661C25.6081 16.27 25.3588 16.372 25.0642 16.372C24.7809 16.372 24.5373 16.27 24.3333 16.0661C24.1294 15.8621 24.0274 15.6185 24.0274 15.3352C24.0274 15.0406 24.1294 14.7913 24.3333 14.5873C24.5373 14.3834 24.7809 14.2814 25.0642 14.2814C25.3588 14.2814 25.6081 14.3834 25.8121 14.5873C26.0161 14.7913 26.118 15.0406 26.118 15.3352Z" fill="white"/>
</svg>
