<svg width="41" height="40" viewBox="0 0 41 40" fill="none" xmlns="http://www.w3.org/2000/svg">
<rect x="0.779999" y="0.149902" width="39.59" height="39.59" rx="19.795" fill="#F0A837"/>
<path d="M29.9109 15.5945C30.3328 17.071 30.3328 20.2351 30.3328 20.2351C30.3328 20.2351 30.3328 23.364 29.9109 24.8757C29.7 25.7195 29.032 26.3523 28.2234 26.5632C26.7117 26.95 20.7352 26.95 20.7352 26.95C20.7352 26.95 14.7234 26.95 13.2117 26.5632C12.4031 26.3523 11.7352 25.7195 11.5242 24.8757C11.1024 23.364 11.1024 20.2351 11.1024 20.2351C11.1024 20.2351 11.1024 17.071 11.5242 15.5945C11.7352 14.7507 12.4031 14.0828 13.2117 13.8718C14.7234 13.45 20.7352 13.45 20.7352 13.45C20.7352 13.45 26.7117 13.45 28.2234 13.8718C29.032 14.0828 29.7 14.7507 29.9109 15.5945ZM18.7664 23.0828L23.7586 20.2351L18.7664 17.3875V23.0828Z" fill="white"/>
</svg>
