<svg width="40" height="40" viewBox="0 0 40 40" fill="none" xmlns="http://www.w3.org/2000/svg">
<rect x="0.190002" y="0.149902" width="39.59" height="39.59" rx="19.795" fill="#F0A837"/>
<path d="M25.6616 14.6453C27.1381 16.1218 28.0522 18.0554 28.0522 20.1648C28.0522 24.4539 24.4663 27.9695 20.142 27.9695C18.8413 27.9695 17.5756 27.6179 16.4155 27.0203L12.3022 28.075L13.392 24.032C12.7241 22.8718 12.3374 21.5359 12.3374 20.1296C12.3374 15.8406 15.853 12.325 20.142 12.325C22.2514 12.325 24.2202 13.1687 25.6616 14.6453ZM20.142 26.6335C23.728 26.6335 26.7163 23.7156 26.7163 20.1648C26.7163 18.407 25.978 16.7898 24.7475 15.5593C23.517 14.3289 21.8999 13.6609 20.1772 13.6609C16.5913 13.6609 13.6733 16.5789 13.6733 20.1296C13.6733 21.3601 14.0249 22.5554 14.6577 23.6101L14.8335 23.8562L14.1655 26.2468L16.6264 25.5789L16.8374 25.7195C17.8569 26.3171 18.9819 26.6335 20.142 26.6335ZM23.728 21.782C23.9038 21.8875 24.0444 21.9226 24.0795 22.0281C24.1499 22.0984 24.1499 22.4851 23.9741 22.9421C23.7983 23.3992 23.0249 23.821 22.6733 23.8562C22.0405 23.9617 21.5483 23.9265 20.3178 23.364C18.3491 22.5203 17.0835 20.5515 16.978 20.446C16.8725 20.3054 16.2045 19.3914 16.2045 18.407C16.2045 17.4578 16.6967 17.0007 16.8725 16.7898C17.0483 16.5789 17.2592 16.5437 17.3999 16.5437C17.5053 16.5437 17.646 16.5437 17.7514 16.5437C17.892 16.5437 18.0327 16.5085 18.2085 16.8953C18.3491 17.282 18.771 18.2312 18.8061 18.3367C18.8413 18.4421 18.8764 18.5476 18.8061 18.6882C18.4545 19.4265 18.0327 19.3914 18.2436 19.7429C19.017 21.0437 19.7553 21.5007 20.9155 22.0632C21.0913 22.1687 21.1967 22.1335 21.3374 22.0281C21.4428 21.8875 21.8295 21.4304 21.935 21.2546C22.0756 21.0437 22.2163 21.0789 22.392 21.1492C22.5678 21.2195 23.517 21.6765 23.728 21.782Z" fill="white"/>
</svg>
